<svg width="24" height="24" viewBox="0 0 24 24" fill="none" xmlns="http://www.w3.org/2000/svg">
<path d="M23.4706 4.14708L22.4118 3.08826C21.7059 2.38237 20.6471 2.38237 19.9412 3.08826L16.7647 6.26473L11.4706 0.0882568H1.76471C0.794095 0.0882568 0 0.882351 0 1.85296V22.1471C0 23.1176 0.794095 23.9118 1.76471 23.9118H15C15.9706 23.9118 16.7647 23.1176 16.7647 22.1471V13.3236L23.4706 6.61767C24.1765 5.91179 24.1765 4.85296 23.4706 4.14708ZM11.4706 1.41176L15.6177 6.26473H12.3529C11.9118 6.26473 11.4706 5.82357 11.4706 5.38237V1.41176ZM15.8824 22.1471C15.8824 22.5882 15.5294 23.0294 15 23.0294H1.76471C1.32355 23.0294 0.882353 22.6765 0.882353 22.1471V1.85296C0.882353 1.41181 1.23529 0.97061 1.76471 0.97061H10.5882V5.38237C10.5882 6.35299 11.3823 7.14708 12.3529 7.14708H15.8824L7.05882 15.9706L6.17647 20.3824L10.5882 19.5L15.8824 14.2059V22.1471ZM7.85292 16.5L10.0588 18.7058L7.32346 19.2353L7.85292 16.5ZM10.7647 18.0883L8.47059 15.7941L18.3529 5.91174L20.6471 8.20586L10.7647 18.0883ZM22.853 6L21.3529 7.49998L19.0588 5.20586L20.5588 3.70588C20.9118 3.35294 21.4412 3.35294 21.7941 3.70588L22.853 4.7647C23.2059 5.11765 23.2059 5.64706 22.853 6Z" fill="#153D48"/>
</svg>
