<svg width="24" height="24" viewBox="0 0 24 24" fill="none" xmlns="http://www.w3.org/2000/svg">
<path d="M20.4442 7.46667V4.44444C20.4442 3.46664 19.6442 2.66667 18.6665 2.66667H15.022L11.9998 0L8.97758 2.66667H5.33312C4.35532 2.66667 3.55534 3.46664 3.55534 4.44444V7.46667L0.888672 9.77778V22.2222C0.888672 23.2 1.68865 24 2.66645 24H21.3331C22.3109 24 23.1109 23.2 23.1109 22.2222V9.77778L20.4442 7.46667ZM20.4442 8.62225L21.7776 9.77778L20.4442 10.9333V8.62225ZM11.9998 1.15553L13.6887 2.66667H10.222L11.9998 1.15553ZM4.44423 4.44444C4.44423 3.91111 4.79978 3.55556 5.33312 3.55556H18.6665C19.1109 3.55556 19.5553 3.99998 19.5553 4.44444V11.6444L13.6887 16.8889H13.7775H10.7553H12.2664H10.222L4.44423 11.7333V4.44444ZM3.55534 8.62225V11.0222L2.22198 9.77778L3.55534 8.62225ZM2.0442 22.8445C1.86643 22.6667 1.77756 22.4889 1.77756 22.2222V16.4444V10.6667L8.88867 16.8889L2.0442 22.8445ZM3.11092 23.1111L9.33309 17.7778H14.6664L20.8887 23.1111H3.11092ZM22.222 16.4444V22.2222C22.222 22.4888 22.1331 22.6666 21.9554 22.8444L15.1109 16.8889L22.222 10.6667V16.4444Z" fill="#333333"/>
</svg>
