<svg width="24" height="22" viewBox="0 0 24 22" fill="none" xmlns="http://www.w3.org/2000/svg">
<path d="M7.68018 8.60001L12.0002 12.92L16.3202 8.60001L15.5522 7.92798L12.4802 11V0.440033H11.5202V11L8.44818 7.92798L7.68018 8.60001Z" fill="#333333"/>
<path d="M19.2 5.23999H13.44V6.19999H18.624L22.8479 12.92H16.32V14.84C16.32 15.896 15.4559 16.76 14.3999 16.76H9.6C8.54397 16.76 7.68 15.896 7.68 14.84V12.92H1.152L5.376 6.19999H10.56V5.23999H4.8L0 12.92V13.4V21.5599H24V13.4V12.92L19.2 5.23999ZM23.04 20.6H0.96V13.88H6.72V15.3201C6.72 16.6641 7.77602 17.72 9.11997 17.72H14.88C16.224 17.72 17.2799 16.6641 17.2799 15.3201V13.88H23.04V20.6Z" fill="#333333"/>
</svg>
