<svg width="150" height="51" viewBox="0 0 150 51" fill="none" xmlns="http://www.w3.org/2000/svg">
<path fill-rule="evenodd" clip-rule="evenodd" d="M19.8341 0.581364C19.7165 0.501897 19.6312 0.483226 19.5718 0.488624C19.5482 0.490771 19.5081 0.500777 19.4576 0.598544C19.4038 0.702694 19.3605 0.869323 19.3339 1.10325C19.281 1.56753 19.3021 2.20746 19.3479 2.91866C19.3662 3.20361 19.3887 3.50146 19.4113 3.80101C19.444 4.23584 19.4771 4.67427 19.4983 5.08213C19.534 5.77044 19.5395 6.41751 19.4474 6.87782C19.3183 7.523 19.3431 8.47994 19.4339 9.43449C19.5186 10.3239 19.658 11.1874 19.7677 11.7478C20.2621 12.0504 20.5467 12.3963 20.8994 12.8251C20.9514 12.8883 21.0049 12.9533 21.0607 13.0203C21.5207 13.5716 22.1791 14.3065 23.5538 15.3671C23.6604 15.4494 23.6802 15.6026 23.5978 15.7092C23.5155 15.8158 23.3622 15.8355 23.2556 15.7532C21.8488 14.6678 21.1653 13.9071 20.6859 13.3326C20.6279 13.263 20.5733 13.1969 20.5214 13.1339C20.1584 12.694 19.9216 12.4069 19.4838 12.1461H15.3116C14.933 12.3355 14.4114 12.7232 13.9283 13.1773C13.422 13.6532 12.9939 14.1686 12.819 14.5618C12.7643 14.6849 12.6201 14.7403 12.497 14.6856C12.3739 14.6309 12.3184 14.4868 12.3731 14.3638C12.5886 13.8791 13.0755 13.3094 13.5939 12.822C13.9627 12.4754 14.3655 12.1536 14.7282 11.9205C14.4218 11.7274 14.0996 11.4318 13.754 11.0331C13.2281 10.4265 12.6259 9.5549 11.9226 8.3687C11.1365 7.04276 10.6134 5.95055 10.2883 4.85712C9.96266 3.76186 9.83898 2.67652 9.83898 1.36753C9.83898 1.14596 9.81308 0.989935 9.77806 0.888428C9.74762 0.800164 9.71752 0.772409 9.70931 0.766117C9.70417 0.766938 9.69427 0.769921 9.67788 0.778905C9.63243 0.803811 9.56394 0.863659 9.48655 0.97903C9.17464 1.44401 8.89035 2.55415 9.20012 4.14986C9.34068 4.8739 9.51822 5.62943 9.69798 6.39441C9.71961 6.48645 9.74127 6.57862 9.7629 6.67089C9.96373 7.52758 10.1619 8.39178 10.3045 9.21953C10.5866 10.8575 10.6663 12.424 10.0524 13.5323C9.26479 14.9544 8.28077 15.579 7.52128 16.0481L7.49302 16.0655C7.12157 16.2949 6.83467 16.472 6.63204 16.6831C6.4387 16.8845 6.3256 17.1146 6.3256 17.4623C6.3256 17.8065 6.33578 18.1589 6.34536 18.4908C6.34926 18.6256 6.35305 18.757 6.35603 18.8831C6.36113 19.0993 6.36379 19.3001 6.35984 19.4706C6.356 19.6367 6.34571 19.791 6.31953 19.9062C6.30068 19.9891 6.24 20.0562 6.15938 20.0833C5.25838 20.3861 3.91734 20.9947 2.79558 21.7087C2.23454 22.0659 1.73769 22.4436 1.37927 22.8158C1.01422 23.195 0.82585 23.5345 0.811053 23.8155C0.733704 25.2843 0.843833 30.9749 1.15177 34.0203C1.1526 34.0284 1.15301 34.0366 1.15301 34.0448C1.15301 34.7481 1.67896 35.232 2.38236 35.4359C3.09592 35.6428 3.86797 35.5221 4.24991 35.1404C4.75881 34.6318 5.24401 34.4598 5.67574 34.4259C5.80312 34.4159 5.92326 34.4182 6.03378 34.4257C5.87388 34.2483 5.67717 34.0379 5.46474 33.828C5.19738 33.5638 4.91046 33.3057 4.64418 33.1153C4.51109 33.0201 4.3881 32.9454 4.27928 32.8953C4.16812 32.8441 4.08654 32.8255 4.03206 32.8255C3.91363 32.8255 3.81599 32.8784 3.7208 32.9831C3.62078 33.093 3.54059 33.2421 3.4647 33.3984C3.45442 33.4195 3.44388 33.4415 3.43326 33.4637C3.40767 33.5171 3.38164 33.5715 3.35768 33.6173C3.32632 33.6773 3.28091 33.7588 3.21926 33.8177C3.18626 33.8491 3.13185 33.8907 3.05534 33.9062C2.97038 33.9235 2.89169 33.9022 2.83046 33.8634C2.77573 33.8286 2.73753 33.782 2.71122 33.7432C2.6837 33.7026 2.65969 33.6562 2.63797 33.6074C2.5387 33.3842 2.52175 33.0509 2.55177 32.7268C2.58273 32.3924 2.66806 32.0212 2.8117 31.7029C2.95178 31.3924 3.16752 31.0884 3.48549 30.9593C3.82785 30.8204 4.2034 30.9149 4.57754 31.2228C5.00051 31.571 5.44318 31.9919 5.8918 32.4206L5.94701 32.4733C6.38037 32.8875 6.82033 33.3079 7.26506 33.6889C7.72892 34.0863 8.19001 34.4338 8.64296 34.6812C9.09639 34.929 9.52808 35.069 9.93648 35.069C9.98657 35.069 10.0439 35.0693 10.1078 35.0697C10.7391 35.0735 12.0086 35.0811 13.2336 34.7972C14.5939 34.4819 15.7951 33.8331 16.0911 32.5277C16.3273 31.4864 17.0253 30.2622 17.7546 29.0794C17.9204 28.8106 18.0879 28.5437 18.2531 28.2805C18.8262 27.3673 19.3714 26.4986 19.7186 25.7487C19.7752 25.6264 19.9202 25.5732 20.0425 25.6298C20.1648 25.6863 20.2181 25.8313 20.1615 25.9535C19.7999 26.7345 19.2311 27.6405 18.6547 28.5587C18.4923 28.8174 18.3292 29.0771 18.17 29.3353C18.0333 29.5571 17.8995 29.7776 17.7708 29.9958C18.4605 30.12 19.3381 29.7828 20.2234 28.9975C21.2185 28.1147 22.1604 26.7139 22.734 24.9937C22.7766 24.866 22.9148 24.7969 23.0427 24.8395C23.1705 24.8821 23.2396 25.0202 23.197 25.148C22.5995 26.9394 21.6139 28.4161 20.5473 29.3622C19.566 30.2327 18.4596 30.6979 17.5157 30.4381C17.0696 31.2314 16.7151 31.9825 16.567 32.6355C16.2054 34.2302 14.7471 34.947 13.3439 35.2723C12.0589 35.5702 10.7327 35.5615 10.1045 35.5575C10.0411 35.5571 9.98488 35.5567 9.93648 35.5567C9.88767 35.5567 9.8389 35.5551 9.79019 35.5521C9.81377 35.5788 9.83183 35.6111 9.84207 35.6476C10.561 38.2175 11.3486 41.6956 9.68869 44.8397C9.6258 44.9588 9.47821 45.0044 9.35904 44.9416C9.23986 44.8787 9.19423 44.7312 9.25711 44.6121C10.8178 41.6558 10.0927 38.3545 9.37212 35.779C9.34306 35.6751 9.38587 35.5682 9.47071 35.511C9.11074 35.4419 8.75524 35.2984 8.4089 35.1092C7.91337 34.8385 7.42295 34.4665 6.94748 34.0592C6.49243 33.6693 6.0438 33.2406 5.61311 32.829L5.55461 32.7731C5.10354 32.3421 4.67395 31.934 4.26734 31.5993C3.97781 31.361 3.78973 31.3623 3.66911 31.4112C3.52411 31.4701 3.37752 31.6352 3.25653 31.9034C3.13911 32.1636 3.06464 32.4804 3.03766 32.7717C3.02344 32.9254 3.02347 33.0605 3.03316 33.1701C3.10913 33.0145 3.213 32.8163 3.35973 32.655C3.51615 32.483 3.7357 32.3378 4.03206 32.3378C4.18498 32.3378 4.33976 32.3862 4.48346 32.4524C4.62949 32.5196 4.77985 32.6126 4.92811 32.7186C5.22453 32.9306 5.53233 33.2089 5.80783 33.4812C6.08442 33.7545 6.33385 34.0271 6.51381 34.2309C6.60392 34.3329 6.67691 34.4181 6.72752 34.4779C6.75282 34.5078 6.77255 34.5314 6.78604 34.5476C6.78903 34.5512 6.79171 34.5544 6.79408 34.5573C6.79706 34.5609 6.79954 34.5639 6.80152 34.5663L6.8067 34.5726L6.80701 34.573L6.80711 34.5731C6.80714 34.5731 6.80716 34.5731 6.61833 34.7276L6.80716 34.5731C6.86686 34.6461 6.87918 34.7468 6.83881 34.832C6.79844 34.9171 6.7126 34.9714 6.61833 34.9714C6.5105 34.9714 6.38642 34.9556 6.27086 34.9409C6.23956 34.9369 6.20888 34.933 6.17933 34.9295C6.02985 34.9118 5.87656 34.8994 5.71393 34.9122C5.39987 34.9368 5.02297 35.0575 4.59496 35.4853C4.04 36.0399 3.05534 36.1388 2.24642 35.9043C1.43079 35.6679 0.671462 35.0537 0.665076 34.0575C0.355826 30.9873 0.245052 25.2844 0.323754 23.7898C0.347995 23.3295 0.638663 22.8817 1.02765 22.4777C1.42327 22.0667 1.95545 21.6653 2.53345 21.2974C3.63252 20.5977 4.93098 19.9981 5.86151 19.67C5.86649 19.6129 5.87007 19.5428 5.872 19.4593C5.87568 19.3007 5.87326 19.1093 5.86819 18.8946C5.86534 18.7737 5.86163 18.6454 5.85779 18.5124C5.84814 18.178 5.83763 17.8139 5.83763 17.4623C5.83763 16.9808 6.0051 16.6318 6.27991 16.3455C6.52676 16.0883 6.86257 15.8812 7.20784 15.6683C7.22679 15.6566 7.24578 15.6449 7.26478 15.6332C8.00579 15.1755 8.90045 14.6052 9.62552 13.2961C10.1486 12.3517 10.1062 10.9432 9.82356 9.30228C9.68374 8.49061 9.48876 7.63944 9.28779 6.78215C9.26619 6.69001 9.24452 6.59779 9.22284 6.50554C9.04341 5.74202 8.86358 4.97678 8.72108 4.24276C8.39649 2.57073 8.67338 1.31544 9.08125 0.707427C9.1838 0.554553 9.30517 0.426933 9.44328 0.351246C9.58688 0.272555 9.76279 0.24508 9.92964 0.330512C10.0854 0.410245 10.182 0.563025 10.2394 0.729443C10.298 0.89923 10.327 1.11357 10.327 1.36753C10.327 2.64345 10.4473 3.6797 10.7561 4.7182C11.0654 5.75855 11.567 6.8123 12.3424 8.12006C13.039 9.29502 13.6242 10.1386 14.1228 10.7137C14.6082 11.2737 14.9915 11.5554 15.2938 11.6584H19.2539C19.1482 11.0892 19.0257 10.2961 18.9481 9.48067C18.8568 8.52093 18.8247 7.5026 18.9689 6.78217C19.0475 6.38897 19.0469 5.79844 19.011 5.10742C18.9899 4.70166 18.9578 4.27707 18.9255 3.84942C18.9029 3.5493 18.8801 3.24768 18.8609 2.94999C18.8152 2.2407 18.7906 1.56074 18.849 1.04806C18.878 0.793499 18.9297 0.557377 19.024 0.374801C19.1216 0.185842 19.2828 0.0251465 19.5276 0.00290745C19.7366 -0.0160796 19.9334 0.0597452 20.1074 0.177271C20.2814 0.294794 20.4497 0.465149 20.6115 0.668669C20.9352 1.07598 21.2618 1.65347 21.5762 2.32497C22.2063 3.67103 22.8085 5.44148 23.2502 7.10899C23.2511 7.11259 23.252 7.11621 23.2528 7.11985C23.4374 7.97328 23.9844 8.87465 24.5641 9.81765L24.5962 9.86978C25.1527 10.7749 25.7342 11.7208 25.9363 12.6297C26.028 13.0422 26.0043 13.6521 25.9158 14.3461C25.9182 14.3597 25.9196 14.3736 25.9197 14.3878C25.9292 15.6283 25.9875 17.1948 26.0515 18.916C26.0628 19.2186 26.0742 19.5259 26.0856 19.8371C26.1616 21.9161 26.235 24.1636 26.235 26.29C26.235 27.4962 26.1614 29.14 26.0882 30.5611C26.0652 31.0089 26.0422 31.4333 26.0216 31.8151C25.9763 32.6529 25.9421 33.2851 25.9421 33.5083L25.9421 33.5105C25.9351 34.3108 25.9345 35.2286 25.934 36.1845C25.9333 37.4183 25.9325 38.7156 25.9177 39.9056C25.9044 40.9652 25.88 41.9494 25.8341 42.7432C25.789 43.5246 25.722 44.1551 25.6123 44.484C25.5697 44.6118 25.4315 44.6809 25.3037 44.6383C25.1759 44.5957 25.1068 44.4576 25.1494 44.3298C25.2349 44.0734 25.3011 43.5103 25.347 42.7151C25.3921 41.9324 25.4165 40.9569 25.4297 39.8995C25.4446 38.7061 25.4453 37.4203 25.446 36.1932C25.4465 35.2433 25.447 34.3286 25.454 33.5192C25.2908 31.8708 24.342 28.436 23.4259 26.3896C23.3709 26.2667 23.426 26.1225 23.549 26.0675C23.672 26.0125 23.8163 26.0675 23.8714 26.1905C24.5044 27.6045 25.1523 29.6633 25.5566 31.3754C25.571 31.1077 25.586 30.8259 25.6009 30.536C25.6741 29.1141 25.747 27.482 25.747 26.29C25.747 24.1733 25.6739 21.9337 25.5979 19.8549C25.5866 19.5446 25.5752 19.2379 25.5639 18.9356C25.5343 18.1388 25.5058 17.3732 25.4828 16.6568C25.4128 16.9594 25.3384 17.2642 25.2611 17.5665C25.0135 18.5359 24.7363 19.4833 24.4865 20.2554C24.2389 21.0208 24.0125 21.6313 23.8653 21.9152C23.8459 21.9526 23.825 21.9892 23.8028 22.0202C23.7917 22.0357 23.7766 22.055 23.7574 22.0736C23.7411 22.0894 23.7055 22.1212 23.6513 22.1393C23.5845 22.1618 23.4963 22.1598 23.4198 22.1042C23.3584 22.0597 23.3344 22.0012 23.3254 21.9756C23.307 21.9229 23.3061 21.8696 23.3062 21.8415C23.3066 21.7166 23.3435 21.4954 23.3974 21.2303C23.5086 20.6827 23.715 19.844 23.9593 18.9342C24.2038 18.0234 24.4876 17.0366 24.7544 16.192C25.0023 15.4073 25.241 14.7271 25.4232 14.3492C25.5169 13.6405 25.5357 13.0761 25.46 12.7355C25.2758 11.9071 24.7302 11.0196 24.1503 10.0762L24.1483 10.073C23.5824 9.15223 22.9839 8.17787 22.777 7.22849C22.3404 5.58107 21.7477 3.84227 21.1342 2.53166C20.8264 1.87412 20.5186 1.33595 20.2294 0.972054C20.0847 0.78997 19.9518 0.660835 19.8341 0.581364ZM23.7944 21.8515C23.7944 21.852 23.7943 21.8512 23.7942 21.8488C23.7944 21.8502 23.7944 21.8511 23.7944 21.8515ZM3.11789 33.4733C3.11791 33.4733 3.11763 33.473 3.11705 33.4722C3.11759 33.4729 3.11786 33.4732 3.11789 33.4733ZM9.7138 0.766183C9.7137 0.76639 9.71252 0.76652 9.71053 0.765951C9.7129 0.765689 9.71389 0.765975 9.7138 0.766183ZM14.9508 14.5958C15.04 14.4949 15.1942 14.4854 15.2952 14.5746C16.101 15.2863 16.6777 15.4464 17.1094 15.465C17.3186 15.4741 17.5022 15.4506 17.687 15.427C17.7003 15.4253 17.7136 15.4236 17.7268 15.4219C17.9145 15.3981 18.1283 15.3723 18.3358 15.4201C18.7672 15.5196 19.0432 15.896 19.2062 16.2707C19.3733 16.6548 19.4521 17.1029 19.4521 17.4623C19.4521 17.597 19.3429 17.7061 19.2081 17.7061C19.0734 17.7061 18.9641 17.597 18.9641 17.4623C18.9641 17.1632 18.8966 16.7822 18.7587 16.4652C18.6168 16.1388 18.4293 15.9422 18.2261 15.8953C18.1164 15.87 17.9879 15.8804 17.7883 15.9057C17.7739 15.9075 17.7593 15.9094 17.7444 15.9113C17.5631 15.9346 17.341 15.9632 17.0883 15.9523C16.5246 15.928 15.8449 15.711 14.9721 14.9401C14.8711 14.8509 14.8616 14.6968 14.9508 14.5958ZM19.5927 21.0095C19.7253 21.0332 19.8136 21.1599 19.7899 21.2925C19.5685 22.529 18.8704 23.2913 18.0681 23.657C17.2789 24.0167 16.386 23.9925 15.7731 23.6583C15.6548 23.5938 15.6112 23.4457 15.6757 23.3275C15.7402 23.2092 15.8884 23.1657 16.0067 23.2302C16.4673 23.4813 17.1969 23.518 17.8656 23.2132C18.5211 22.9144 19.1162 22.2866 19.3095 21.2066C19.3333 21.074 19.46 20.9857 19.5927 21.0095ZM17.5014 24.4088C17.6246 24.4633 17.6802 24.6073 17.6257 24.7305C17.273 25.5268 16.9649 26.2576 16.6845 26.9258C16.6616 26.9804 16.6389 27.0346 16.6163 27.0883C16.3631 27.6919 16.1313 28.2444 15.9093 28.7439C15.4275 29.8278 14.9804 30.6893 14.4323 31.3123C13.8746 31.9462 13.2152 32.3302 12.3277 32.4678C11.4536 32.6033 10.3689 32.4982 8.95667 32.1857C8.8251 32.1566 8.74206 32.0264 8.77119 31.8949C8.80031 31.7634 8.93058 31.6804 9.06215 31.7095C10.4558 32.0179 11.4694 32.1073 12.2529 31.9859C13.0229 31.8665 13.5805 31.5419 14.0658 30.9902C14.5607 30.4277 14.9829 29.6267 15.4633 28.5459C15.6832 28.0512 15.913 27.5035 16.1668 26.8984C16.1892 26.8451 16.2118 26.7913 16.2345 26.7371C16.5151 26.0686 16.8247 25.334 17.1795 24.533C17.234 24.4099 17.3782 24.3543 17.5014 24.4088ZM14.5879 36.77C14.5327 36.748 14.4392 36.7388 14.2726 36.8054C13.965 36.9284 13.7525 37.2628 13.653 37.8312C13.5548 38.3916 13.5803 39.1128 13.6857 39.8871C13.8961 41.4334 14.4145 43.1187 14.796 43.9924C14.8499 44.1159 14.7934 44.2596 14.6699 44.3135C14.5464 44.3673 14.4026 44.3109 14.3487 44.1875C13.9494 43.2729 13.4187 41.5442 13.2022 39.9528C13.094 39.1582 13.0616 38.3796 13.1723 37.7471C13.2817 37.1227 13.545 36.571 14.0913 36.3526C14.3281 36.2579 14.5584 36.233 14.769 36.3171C14.9769 36.4002 15.1171 36.5704 15.2168 36.7608C15.4094 37.1286 15.512 37.6963 15.619 38.3069C15.6243 38.3372 15.6296 38.3676 15.635 38.3982C15.8532 39.6463 16.1247 41.1991 17.0601 42.4306C17.8681 43.4942 18.4169 43.9519 18.8407 44.1836C19.0519 44.2991 19.2394 44.3626 19.4269 44.4157C19.4744 44.4292 19.5239 44.4424 19.5748 44.4561C19.718 44.4944 19.8725 44.5358 20.0257 44.5932C20.1519 44.6405 20.2158 44.7811 20.1685 44.9072C20.1212 45.0333 19.9805 45.0972 19.8544 45.0499C19.725 45.0013 19.6045 44.9691 19.4695 44.933C19.414 44.9181 19.356 44.9025 19.2938 44.885C19.0874 44.8265 18.8618 44.7511 18.6065 44.6115C18.0973 44.333 17.4993 43.8153 16.6715 42.7255C15.663 41.3978 15.374 39.7416 15.1596 38.513C15.1524 38.4718 15.1454 38.4312 15.1383 38.391C15.0261 37.7505 14.9337 37.272 14.7844 36.987C14.7132 36.8509 14.6457 36.7931 14.5879 36.77Z" fill="#153D48"/>
<path fill-rule="evenodd" clip-rule="evenodd" d="M13.2117 19.6505C13.0325 19.7199 12.9706 19.7438 13.2083 19.5328C13.3965 19.3657 13.5359 19.1235 13.6749 18.8818C13.9228 18.451 14.1698 18.0216 14.6914 18.0216C15.2039 18.0216 15.5136 18.284 15.9254 18.633C16.0125 18.7068 16.1042 18.7845 16.2033 18.8644C16.4828 19.0896 16.942 19.1186 17.2674 19.1392C17.4879 19.1531 17.6469 19.1631 17.6469 19.2277C17.6469 19.2956 17.4683 19.3058 17.2459 19.3185C16.945 19.3356 16.5639 19.3574 16.4362 19.5328C15.815 20.1431 15.4516 20.1431 14.9821 20.1431C14.5203 20.1479 14.3659 19.9202 14.2413 19.7365C14.1815 19.6482 14.1285 19.5701 14.0516 19.5328C13.8134 19.4175 13.4275 19.5669 13.2117 19.6505ZM14.9988 20.0564C15.5127 20.0564 15.9293 19.64 15.9293 19.1264C15.9293 18.6128 15.5127 18.1964 14.9988 18.1964C14.4849 18.1964 14.0684 18.6128 14.0684 19.1264C14.0684 19.64 14.4849 20.0564 14.9988 20.0564Z" fill="#153D48"/>
<path fill-rule="evenodd" clip-rule="evenodd" d="M15.0015 19.8533C15.5315 19.8533 15.9611 19.4825 15.9611 19.025C15.9611 18.5676 15.5315 18.1968 15.0015 18.1968C14.4716 18.1968 14.042 18.5676 14.042 19.025C14.042 19.4825 14.4716 19.8533 15.0015 19.8533ZM14.5623 18.6317C14.6426 18.6317 14.7077 18.6968 14.7077 18.7771C14.7077 18.8573 14.6426 18.9224 14.5623 18.9224C14.4821 18.9224 14.417 18.8573 14.417 18.7771C14.417 18.6968 14.4821 18.6317 14.5623 18.6317Z" fill="#153D48"/>
<path fill-rule="evenodd" clip-rule="evenodd" d="M9.34851 35.0902C9.55063 35.0902 9.71449 35.254 9.71448 35.456C9.71447 35.8835 9.82072 36.2825 9.9722 36.7655C9.99388 36.8347 10.0165 36.9054 10.0396 36.978C10.1757 37.4045 10.3316 37.8931 10.4402 38.4736C10.6978 39.8511 10.687 41.7189 9.69627 44.7391C9.63329 44.931 9.42654 45.0356 9.23448 44.9727C9.04241 44.9097 8.93776 44.7031 9.00074 44.5111C9.96189 41.5812 9.95108 39.8398 9.72071 38.608C9.62113 38.0755 9.4801 37.633 9.34418 37.2065C9.32046 37.1321 9.29691 37.0582 9.27375 36.9843C9.12025 36.4949 8.98251 36.0039 8.98252 35.456C8.98252 35.2539 9.14638 35.0902 9.34851 35.0902Z" fill="#153D48"/>
<path fill-rule="evenodd" clip-rule="evenodd" d="M19.29 1.38364C19.2908 1.38351 19.2916 1.38337 19.2095 0.902605C19.1274 0.421842 19.1282 0.4217 19.1291 0.421559L19.1308 0.421273L19.1344 0.420694C19.1369 0.420306 19.1395 0.419914 19.1423 0.419522C19.1478 0.418738 19.1539 0.417955 19.1605 0.417208C19.1737 0.415715 19.189 0.414366 19.2065 0.413441C19.2413 0.411589 19.2843 0.411441 19.3346 0.415181C19.4357 0.422697 19.564 0.445739 19.7129 0.500024C20.013 0.609364 20.3762 0.837559 20.766 1.28233C21.5329 2.15738 22.4303 3.90153 23.1915 7.39415C23.7892 8.92007 24.1443 9.52205 24.899 10.8011C25.0965 11.136 25.3215 11.5173 25.5853 11.9737C25.7528 12.2635 25.8421 12.6612 25.8927 13.0541C25.9453 13.4619 25.963 13.9247 25.9547 14.3841C25.9385 15.2876 25.8199 16.2559 25.6234 16.8171C25.5344 17.0713 25.256 17.2053 25.0016 17.1163C24.7472 17.0273 24.6132 16.7491 24.7022 16.4948C24.8473 16.0806 24.9633 15.2355 24.9789 14.3666C24.9866 13.9398 24.9696 13.5266 24.9248 13.1786C24.878 12.8157 24.8073 12.5777 24.7403 12.4617C24.4853 12.0206 24.2649 11.6472 24.0689 11.3151C23.298 10.0089 22.9045 9.34225 22.2684 7.7129L22.2543 7.6768L22.246 7.63892C21.4964 4.18258 20.6407 2.61974 20.0319 1.92507C19.7324 1.58339 19.501 1.46104 19.3786 1.41645C19.3164 1.39376 19.2765 1.38899 19.2623 1.38793C19.2578 1.3876 19.2555 1.38761 19.2555 1.38761C19.2555 1.38761 19.2564 1.38761 19.2583 1.38751C19.2607 1.38738 19.2646 1.3871 19.2701 1.38647C19.2729 1.38616 19.2761 1.38576 19.2797 1.38525C19.2815 1.38499 19.2834 1.38471 19.2854 1.3844L19.2884 1.38391L19.29 1.38364Z" fill="#153D48"/>
<path fill-rule="evenodd" clip-rule="evenodd" d="M1.0718 25.6771C1.0718 25.6771 1.07178 25.6769 0.708842 25.724C0.345901 25.771 0.345893 25.771 0.345893 25.771L0.346059 25.7723L0.346704 25.7774C0.347293 25.782 0.348195 25.7893 0.34939 25.7991C0.35178 25.8187 0.35534 25.8485 0.359906 25.8884C0.369037 25.9684 0.382185 26.089 0.398016 26.2498C0.429678 26.5714 0.403775 26.4732 0.446227 27.1124C0.531132 28.391 0.616268 30.2972 0.616236 32.8006C0.616236 34.933 2.02884 35.8489 2.9341 35.8489C3.3816 35.8489 3.78664 35.7 4.13255 35.5167C4.45006 35.3485 4.73933 35.1389 4.97609 34.9675C4.99552 34.9534 5.0146 34.9396 5.03331 34.926C5.16077 34.8339 5.26837 34.7577 5.36356 34.699C5.42837 34.659 5.47721 34.6338 5.51296 34.6186C5.51412 34.6218 5.5153 34.625 5.51651 34.6285C5.58329 34.8192 5.79207 34.9197 5.98285 34.8529C6.17363 34.7862 6.27415 34.5775 6.20738 34.3868C6.1506 34.2247 6.056 34.0583 5.8874 33.9565C5.70965 33.8491 5.52199 33.8562 5.37422 33.8945C5.23293 33.9312 5.09741 34.0035 4.97933 34.0763C4.85818 34.151 4.73017 34.2423 4.60449 34.3331C4.58742 34.3455 4.57032 34.3579 4.55318 34.3703C4.30982 34.5464 4.05996 34.7271 3.78972 34.8703C3.50279 35.0224 3.21857 35.1173 2.9341 35.1173C2.47307 35.1173 1.3482 34.5701 1.3482 32.8006C1.34823 30.2806 1.26253 28.3582 1.17658 27.064C1.13361 26.4169 1.15887 26.5074 1.12646 26.1782C1.11025 26.0136 1.0967 25.8892 1.08715 25.8055C1.08237 25.7636 1.07859 25.732 1.07597 25.7105C1.07466 25.6998 1.07364 25.6916 1.07294 25.686L1.07212 25.6796L1.07189 25.6778L1.0718 25.6771Z" fill="#153D48"/>
<path fill-rule="evenodd" clip-rule="evenodd" d="M8.07371 15.4556C7.9761 15.567 7.9874 15.7365 8.09895 15.8341C8.42641 16.1205 8.53899 16.3108 8.57147 16.4378C8.60013 16.5499 8.57718 16.6542 8.4947 16.8137C8.46697 16.8674 8.43188 16.9264 8.39322 16.9914C8.20883 17.3015 7.94318 17.7482 8.00726 18.4011C8.00504 18.8331 7.89417 19.1165 7.73335 19.3155C7.56764 19.5204 7.32653 19.6635 7.01858 19.7717C6.7086 19.8806 6.35393 19.9468 5.97515 20.0131C5.94866 20.0178 5.92204 20.0224 5.89531 20.0271C5.54877 20.0875 5.18377 20.1512 4.85382 20.2531C4.1224 20.4791 3.2629 20.9259 2.55386 21.403C2.19824 21.6423 1.87402 21.8935 1.61869 22.1343C1.37097 22.3678 1.16092 22.6164 1.07116 22.8529L1.57304 23.0431C1.61747 22.9261 1.75106 22.747 1.98702 22.5245C2.21537 22.3092 2.51489 22.076 2.85363 21.8481C3.53332 21.3907 4.34512 20.9718 5.01233 20.7657C5.30817 20.6743 5.64065 20.6162 5.99637 20.5541C6.02009 20.5499 6.0439 20.5458 6.06782 20.5416C6.44159 20.4761 6.8387 20.4036 7.19663 20.2778C7.55658 20.1513 7.89952 19.9636 8.15087 19.6526C8.40548 19.3377 8.54407 18.9238 8.54407 18.3878V18.3737L8.54259 18.3597C8.49319 17.8906 8.65537 17.6124 8.83296 17.3077C8.87928 17.2282 8.92665 17.1469 8.97158 17.06C9.07819 16.8537 9.16808 16.6044 9.09153 16.305C9.01879 16.0205 8.8081 15.7414 8.45243 15.4303C8.34088 15.3328 8.17132 15.3441 8.07371 15.4556Z" fill="#153D48"/>
<path fill-rule="evenodd" clip-rule="evenodd" d="M9.70882 1.08096L9.58691 0.297762C9.72425 0.276408 9.88079 0.256628 10.0241 0.271162C10.1927 0.288259 10.3966 0.359503 10.5339 0.562515C10.6413 0.7212 10.6623 0.902045 10.6716 1.00571C10.6797 1.09631 10.6831 1.20794 10.6866 1.32091C10.6875 1.35146 10.6884 1.38211 10.6894 1.41247C10.7093 1.99892 10.7745 3.10414 11.5098 5.07167C11.5481 5.17419 11.5837 5.28521 11.6232 5.40839C11.7495 5.80233 11.9156 6.32068 12.3382 7.08326C12.875 8.05216 13.8232 9.39744 15.5955 11.212L15.7182 11.209C15.9256 11.2041 16.2134 11.1972 16.535 11.1896C17.1781 11.1744 17.9568 11.1561 18.4985 11.1439C18.7689 11.1378 18.9815 11.1332 19.0883 11.1312C19.1148 11.1308 19.1363 11.1304 19.1508 11.1303C19.1567 11.1302 19.1663 11.1301 19.1751 11.1302C19.1775 11.1303 19.1826 11.1303 19.1888 11.1306C19.192 11.1307 19.1996 11.1311 19.2043 11.1314C19.2118 11.132 19.2338 11.1343 19.2484 11.1365C19.2884 11.1446 19.5525 11.3138 19.6565 11.5679C19.5906 11.8671 19.3175 12.0833 19.2745 12.0947C19.2595 12.0977 19.2366 12.1014 19.2288 12.1024C19.2241 12.1029 19.2163 12.1037 19.213 12.104C19.1896 12.1061 19.133 12.1078 19.0728 12.1096L19.0643 12.1098C18.7577 12.119 17.8414 12.1434 15.9449 12.1922C15.9062 12.1932 15.8684 12.1896 15.8321 12.182C15.8005 12.1828 15.7702 12.1835 15.7416 12.1842L15.4077 12.1922L15.4074 12.1922C15.4074 12.1922 15.4073 12.1922 15.3956 11.7046L15.4073 12.1922L15.1965 12.1973L15.0484 12.0473C13.1341 10.1093 12.0887 8.64653 11.4844 7.55581C11.0083 6.69658 10.8041 6.05584 10.6801 5.6669C10.6475 5.56465 10.6205 5.47981 10.5955 5.41297C9.81805 3.33243 9.73691 2.12098 9.71405 1.44544C9.71258 1.40195 9.71138 1.36304 9.7103 1.3279C9.70708 1.22334 9.70489 1.15213 9.69957 1.0929C9.69665 1.06038 9.69353 1.04495 9.69276 1.04151C9.69365 1.04498 9.69801 1.06012 9.70882 1.08096Z" fill="#153D48"/>
<path fill-rule="evenodd" clip-rule="evenodd" d="M22.9461 24.5412C23.1981 24.6368 23.3247 24.9185 23.2289 25.1703C22.2787 27.6697 21.1222 29.1318 20.0929 29.92C19.5797 30.3131 19.0913 30.5434 18.6723 30.6429C18.4633 30.6926 18.2618 30.712 18.078 30.696C18.0735 30.6957 18.069 30.6952 18.0645 30.6948C17.8549 31.0842 17.7456 31.4668 17.6223 31.8985C17.5657 32.0965 17.5061 32.3048 17.4326 32.5289C17.1615 33.3552 16.7326 34.2048 15.5974 35.0458L15.5665 35.0686L15.5325 35.0863C13.4461 36.1743 11.7328 36.1458 10.3773 36.1232C10.192 36.1201 10.0134 36.1171 9.84149 36.1171C9.57199 36.1171 9.35352 35.8987 9.35352 35.6294C9.35352 35.36 9.57199 35.1416 9.84149 35.1416C10.0262 35.1416 10.2129 35.1444 10.4021 35.1473C11.7393 35.1673 13.2063 35.1894 15.0468 34.2393C15.962 33.5523 16.2848 32.897 16.5053 32.2249C16.5558 32.071 16.6027 31.9058 16.652 31.7324C16.8164 31.1536 17.0066 30.4844 17.4403 29.8446L17.7366 29.4074L18.1266 29.7193C18.134 29.7209 18.1456 29.7228 18.1622 29.7242C18.2205 29.7293 18.3155 29.7251 18.4466 29.6939C18.7077 29.6319 19.0733 29.472 19.4994 29.1457C20.3488 28.4952 21.4126 27.2016 22.3166 24.8238C22.4124 24.572 22.6942 24.4455 22.9461 24.5412ZM18.1158 29.7164C18.1158 29.7164 18.116 29.7165 18.1163 29.7166C18.116 29.7165 18.1158 29.7164 18.1158 29.7164Z" fill="#153D48"/>
<path fill-rule="evenodd" clip-rule="evenodd" d="M9.58188 1.48469C9.73567 1.14992 9.85469 1.16324 9.87583 1.16653C10.0755 1.19758 10.2626 1.06093 10.2937 0.861313C10.3248 0.661694 10.1881 0.474696 9.98834 0.443642C9.46051 0.36157 9.10984 0.758974 8.91669 1.17942C8.71512 1.61819 8.59899 2.23489 8.56907 2.95727C8.50883 4.41128 8.79361 6.40459 9.58908 8.54108C10.2984 10.4462 10.3119 13.5328 8.04978 15.3995C7.63783 15.5292 7.11926 15.8098 6.70857 16.1938C6.27624 16.598 5.89486 17.1858 6.00879 17.8853L6.73124 17.7677C6.67438 17.4186 6.85413 17.0595 7.20861 16.728C7.55889 16.4005 8.01295 16.1676 8.32217 16.0818L8.39478 16.0616L8.45351 16.0144C11.1138 13.8769 11.0491 10.3648 10.2751 8.28593C9.5089 6.2281 9.24471 4.33183 9.3004 2.98754C9.32844 2.31076 9.43651 1.80113 9.58188 1.48469Z" fill="#153D48"/>
<path fill-rule="evenodd" clip-rule="evenodd" d="M2.73341 23.6539C2.59871 23.6539 2.48951 23.7631 2.48951 23.8978C2.48952 25.4233 2.49065 25.5561 2.80851 28.0739C2.82538 28.2076 2.94739 28.3022 3.08104 28.2854C3.21469 28.2685 3.30936 28.1465 3.29249 28.0129C2.97733 25.5164 2.97733 25.397 2.97733 23.9141L2.97733 23.8978C2.97732 23.7631 2.86812 23.6539 2.73341 23.6539Z" fill="#153D48"/>
<path fill-rule="evenodd" clip-rule="evenodd" d="M19.6107 0.830332C19.7955 0.839681 19.9612 0.708013 19.9902 0.521187C20.0213 0.321568 19.8846 0.13457 19.685 0.103516C19.5561 0.083475 19.4207 0.0950876 19.2926 0.15546C19.1663 0.215023 19.0748 0.309024 19.0099 0.408692C18.8881 0.595633 18.8356 0.840372 18.8092 1.07717C18.7552 1.56208 18.7914 2.2373 18.8456 2.97016C18.8607 3.17435 18.8773 3.3844 18.8942 3.59854C19.0018 4.96071 19.1224 6.48882 18.9582 7.7329L18.955 7.75673V7.78077C18.955 9.04242 19.0333 9.79034 19.1122 10.3778C19.1264 10.4833 19.1403 10.5823 19.1536 10.6769C19.2146 11.1094 19.2629 11.4518 19.2628 11.9264L19.9946 11.9264C19.9946 11.3966 19.9384 10.9992 19.8766 10.5621C19.8636 10.4705 19.8504 10.3771 19.8374 10.2804C19.7629 9.72535 19.6877 9.01573 19.6867 7.80445C19.8574 6.48105 19.7298 4.87438 19.623 3.52907C19.6062 3.31762 19.5899 3.11263 19.5754 2.91621C19.5202 2.17067 19.4912 1.5641 19.5364 1.15815C19.5561 0.981503 19.5865 0.880616 19.6107 0.830332Z" fill="#153D48"/>
<path fill-rule="evenodd" clip-rule="evenodd" d="M6.42076 24.276C6.42076 26.1238 5.19507 26.5146 4.12325 26.8564C3.80103 26.9591 3.49272 27.0574 3.23579 27.1896C3.04873 27.2858 2.81512 27.2866 2.63545 27.1772C2.42388 27.0484 2.18779 26.9364 1.94626 26.8217C1.35587 26.5415 0.733003 26.2459 0.356371 25.6527C0.370921 25.6539 0.387577 25.6544 0.406485 25.6544C0.891586 25.6544 1.79722 25.2858 1.79722 24.8009C1.79722 24.7207 1.82771 24.6234 1.85926 24.5228C1.95246 24.2253 2.05483 23.8986 1.40683 23.8986C0.758942 23.8986 0.806732 24.1316 0.872376 24.4515C0.894607 24.5599 0.918886 24.6782 0.918886 24.8009C0.918886 25.0563 0.642005 25.2795 0.450936 25.4336C0.387573 25.4846 0.333647 25.5281 0.302386 25.5626C0.117013 25.2341 0.00390625 24.819 0.00390625 24.276C0.00390625 22.6055 1.31475 22.6055 2.93175 22.6055C3.16275 22.6055 3.39896 22.5971 3.63417 22.5886C5.04542 22.5381 6.42076 22.4888 6.42076 24.276ZM5.15993 25.6544C4.67483 25.6544 3.76919 25.2858 3.76919 24.8009C3.76919 24.7207 3.7387 24.6234 3.70716 24.5228C3.61396 24.2253 3.51158 23.8986 4.15958 23.8986C4.80747 23.8986 4.75968 24.1316 4.69404 24.4515C4.67181 24.5599 4.64753 24.6782 4.64753 24.8009C4.64753 25.0563 4.92441 25.2795 5.11548 25.4336C5.28707 25.5719 5.38945 25.6544 5.15993 25.6544Z" fill="#153D48"/>
<path fill-rule="evenodd" clip-rule="evenodd" d="M6.65798 19.7518C7.25088 19.7518 8.1219 19.3829 8.1219 18.7903C8.03825 18.205 7.35509 17.5083 6.65798 17.5083C6.06508 17.5083 5.86328 18.0166 5.86328 18.6092C5.86328 19.2017 6.06508 19.7518 6.65798 19.7518ZM6.90789 19.4873C7.40069 19.4873 7.80019 19.088 7.80019 18.5954C7.80019 18.1029 7.40069 17.7036 6.90789 17.7036C6.41509 17.7036 6.0156 18.1029 6.0156 18.5954C6.0156 19.088 6.41509 19.4873 6.90789 19.4873Z" fill="#153D48"/>
<path fill-rule="evenodd" clip-rule="evenodd" d="M6.907 19.2927C7.4152 19.2927 7.82718 18.9371 7.82718 18.4984C7.82718 18.0597 7.4152 17.7041 6.907 17.7041C6.39879 17.7041 5.98682 18.0597 5.98682 18.4984C5.98682 18.9371 6.39879 19.2927 6.907 19.2927ZM6.48557 18.1217C6.56254 18.1217 6.62495 18.1841 6.62495 18.261C6.62495 18.338 6.56254 18.4004 6.48557 18.4004C6.40859 18.4004 6.34619 18.338 6.34619 18.261C6.34619 18.1841 6.40859 18.1217 6.48557 18.1217Z" fill="#153D48"/>
<path fill-rule="evenodd" clip-rule="evenodd" d="M25.4457 12.6086C25.7136 12.5802 25.9538 12.7743 25.9822 13.0422C26.1564 14.6839 26.2411 20.3739 26.2411 26.701C26.2411 33.0434 26.1557 40.0741 25.9846 44.4244C25.974 44.6935 25.7472 44.9031 25.478 44.8926C25.2088 44.882 24.9991 44.6552 25.0097 44.3861C25.1801 40.055 25.2654 33.0393 25.2654 26.701C25.2654 20.3474 25.1794 14.7222 25.012 13.145C24.9836 12.8772 25.1778 12.637 25.4457 12.6086Z" fill="#153D48"/>
<path fill-rule="evenodd" clip-rule="evenodd" d="M6.66245 16.094L6.65917 16.0935C5.91144 15.9965 5.42325 15.936 5.07288 15.9331C4.80455 15.9309 4.71749 15.9659 4.69989 15.9754C4.69093 15.9853 4.62528 16.0672 4.55318 16.4126C4.48574 16.7356 4.43463 17.1618 4.3623 17.7649C4.35088 17.8602 4.33892 17.9598 4.32629 18.0642C4.1325 19.6656 4.35774 20.178 4.53823 20.3686C4.62765 20.463 4.76846 20.5479 5.03302 20.6197C5.30972 20.6947 5.64535 20.7369 6.09731 20.7915C6.54604 20.8458 6.90995 20.8885 7.23505 20.8846C7.55274 20.8808 7.77161 20.8315 7.93603 20.7431C8.22215 20.5894 8.6262 20.1519 8.8132 18.6066C8.85946 18.2244 8.90892 17.8919 8.95151 17.6083L8.95664 17.5742C8.99765 17.3012 9.02979 17.0873 9.04945 16.9051C9.07576 16.6614 9.06801 16.55 9.06249 16.5079C9.02179 16.4855 8.91103 16.4352 8.65349 16.378C8.23312 16.2848 7.61519 16.2091 6.66573 16.0944L6.66245 16.094ZM4.69628 15.9777C4.69619 15.9777 4.69706 15.977 4.69916 15.9758C4.69742 15.9772 4.69637 15.9778 4.69628 15.9777ZM6.00705 21.5374C7.75359 21.7485 9.16944 21.9197 9.55945 18.6968C9.73655 17.2334 9.96347 16.5086 9.70038 16.0957C9.43026 15.6718 8.64356 15.5767 6.75599 15.3485C3.93835 14.9827 3.9356 15.0057 3.61568 17.6775C3.60426 17.7729 3.59243 17.8717 3.58005 17.974C3.19004 21.1968 4.26051 21.3262 6.00705 21.5374Z" fill="#153D48"/>
<path fill-rule="evenodd" clip-rule="evenodd" d="M15.3659 17.181L15.3685 17.1813C16.2831 17.2853 16.9065 17.3586 17.3501 17.4538C17.8106 17.5527 17.9102 17.645 17.9266 17.6637C17.9267 17.6638 17.9267 17.6639 17.9268 17.664C17.9295 17.667 17.9423 17.6811 17.9557 17.7349C17.9719 17.7999 17.9849 17.9073 17.9822 18.0857C17.9772 18.4083 17.9261 18.8256 17.8522 19.4302C17.8406 19.5253 17.8284 19.6251 17.8157 19.7299C17.6265 21.293 17.2417 21.7104 16.951 21.859C16.7779 21.9474 16.5351 21.9982 16.1613 21.9972C15.7826 21.9962 15.3448 21.9444 14.7948 21.8779C14.2474 21.8117 13.778 21.7541 13.3654 21.6584C12.9551 21.5632 12.6605 21.4425 12.4498 21.2856C12.1069 21.0304 11.7679 20.5105 11.9482 19.0206C11.9948 18.6357 12.0241 18.2986 12.0486 18.0127L12.0513 17.9808C12.075 17.7034 12.0931 17.491 12.1175 17.3132C12.1479 17.0911 12.1808 16.9982 12.1955 16.9659C12.2376 16.9504 12.4014 16.9053 12.8743 16.9245C13.4222 16.9467 14.202 17.0403 15.3632 17.1807L15.3659 17.181ZM12.2033 16.9513C12.2033 16.9512 12.2027 16.952 12.2015 16.954C12.2028 16.9524 12.2034 16.9514 12.2033 16.9513ZM14.7045 22.6237C12.5547 22.3639 10.812 22.1532 11.202 18.9303C11.3689 17.551 11.3082 16.7949 11.6567 16.4366C12.0576 16.0244 13.0001 16.1383 15.4534 16.4349C18.9283 16.8298 18.9255 16.8528 18.5981 19.5236C18.5864 19.619 18.5743 19.7178 18.5619 19.8201C18.1719 23.0429 16.8543 22.8836 14.7045 22.6237Z" fill="#153D48"/>
<path fill-rule="evenodd" clip-rule="evenodd" d="M9.01972 17.7105C9.03633 17.5732 9.16117 17.4753 9.29855 17.4919L11.5853 17.7684C11.7226 17.785 11.8205 17.9097 11.8039 18.047C11.7873 18.1844 11.6625 18.2822 11.5251 18.2656L9.23838 17.9892C9.101 17.9726 9.0031 17.8478 9.01972 17.7105Z" fill="#153D48"/>
<path d="M38.5538 45.1094C37.202 45.1094 36.0825 44.835 35.1954 44.2861C34.3293 43.7372 33.664 42.9666 33.1993 41.9743C32.7557 40.9821 32.4811 39.8104 32.3755 38.4593L33.8646 37.9843C34.0125 39.1032 34.2343 40.0954 34.53 40.961C34.8468 41.8266 35.3221 42.5021 35.9558 42.9877C36.5894 43.4522 37.466 43.6844 38.5855 43.6844C39.8529 43.6844 40.8456 43.3677 41.5638 42.7344C42.3031 42.101 42.6727 41.0454 42.6727 39.5676C42.6727 38.4487 42.377 37.4459 41.7856 36.5592C41.2153 35.6514 40.4021 34.6803 39.3459 33.6458L34.6567 28.9907C33.8752 28.1885 33.3049 27.3863 32.9458 26.584C32.5867 25.7818 32.4072 24.9584 32.4072 24.114C32.4072 22.425 32.9247 21.1267 33.9597 20.2189C35.0158 19.3111 36.3782 18.8572 38.0469 18.8572C38.9129 18.8572 39.6945 18.9733 40.3915 19.2055C41.0885 19.4166 41.6905 19.7755 42.1975 20.2822C42.7255 20.7678 43.1374 21.4222 43.4332 22.2456C43.7289 23.0689 43.919 24.0823 44.0035 25.2856L42.546 25.634C42.4615 24.4306 42.2608 23.4278 41.944 22.6256C41.6272 21.8234 41.1625 21.2322 40.5499 20.8522C39.9374 20.4511 39.1136 20.2505 38.0786 20.2505C36.9168 20.2505 35.9452 20.5461 35.1637 21.1372C34.3821 21.7284 33.9914 22.6784 33.9914 23.9873C33.9914 24.6417 34.1181 25.2751 34.3716 25.8873C34.6462 26.4996 35.1425 27.1646 35.8607 27.8824L40.4866 32.4425C41.5216 33.4558 42.4087 34.5431 43.148 35.7042C43.9084 36.8442 44.2886 38.1004 44.2886 39.4726C44.2886 40.7604 44.0457 41.8266 43.5599 42.671C43.0741 43.4944 42.3981 44.1066 41.5321 44.5077C40.6661 44.9089 39.6733 45.1094 38.5538 45.1094Z" fill="#153D48"/>
<path d="M51.4855 45.0777C50.5139 45.0777 49.6796 44.8877 48.9825 44.5077C48.2855 44.1066 47.7469 43.3994 47.3666 42.386C47.0076 41.3516 46.828 39.8949 46.828 38.0159V33.1392C46.828 31.218 47.0181 29.7613 47.3983 28.7691C47.7785 27.7768 48.3172 27.1012 49.0142 26.7423C49.7324 26.3835 50.5667 26.204 51.5172 26.204C52.6579 26.204 53.5556 26.4468 54.2104 26.9324C54.8652 27.4179 55.3299 28.199 55.6044 29.2757C55.879 30.3313 56.0163 31.7352 56.0163 33.4875V35.2292H48.5073V38.1426C48.5073 39.5993 48.6023 40.7393 48.7924 41.5627C49.0036 42.386 49.331 42.9666 49.7746 43.3044C50.2182 43.6422 50.7885 43.8111 51.4855 43.8111C51.9291 43.8111 52.3727 43.7372 52.8163 43.5894C53.2598 43.4416 53.6295 43.0933 53.9252 42.5444C54.2209 41.9955 54.3688 41.1404 54.3688 39.9793V38.6176H56.0163V39.821C56.0163 41.3832 55.6889 42.6499 55.0341 43.621C54.4005 44.5922 53.2176 45.0777 51.4855 45.0777ZM48.5073 34.2158H54.3688V32.7908C54.3688 31.693 54.3054 30.7535 54.1787 29.9724C54.0731 29.1702 53.8196 28.5579 53.4183 28.1357C53.0169 27.6924 52.3833 27.4707 51.5172 27.4707C50.8413 27.4707 50.271 27.6185 49.8063 27.914C49.3627 28.1885 49.0353 28.7163 48.8241 29.4974C48.6129 30.2574 48.5073 31.3658 48.5073 32.8225V34.2158Z" fill="#153D48"/>
<path d="M59.4035 44.7927V26.489H61.0828V28.9591C61.632 28.0513 62.3079 27.3863 63.1105 26.964C63.9343 26.5207 64.7053 26.299 65.4235 26.299C65.4657 26.299 65.508 26.299 65.5502 26.299C65.6136 26.299 65.6769 26.3096 65.7403 26.3307V28.0724C65.6558 28.0302 65.5396 28.009 65.3918 28.009C65.265 27.9879 65.1489 27.9774 65.0433 27.9774C64.1984 27.9774 63.438 28.1779 62.762 28.5791C62.1072 28.9802 61.5475 29.5607 61.0828 30.3208V44.7927H59.4035Z" fill="#153D48"/>
<path d="M71.1647 44.7927L66.9507 26.489H68.6617L72.0835 42.671L75.442 26.489H77.0579L73.034 44.7927H71.1647Z" fill="#153D48"/>
<path d="M79.7327 44.7927V26.489H81.4436V44.7927H79.7327ZM79.7327 24.0823V21.1689H81.4436V24.0823H79.7327Z" fill="#153D48"/>
<path d="M89.7591 45.0777C88.3862 45.0777 87.3723 44.7611 86.7175 44.1277C86.0627 43.4733 85.6297 42.6077 85.4184 41.531C85.2283 40.4543 85.1333 39.251 85.1333 37.9209V33.6142C85.1333 31.8197 85.2706 30.3841 85.5452 29.3074C85.8198 28.2096 86.295 27.4179 86.971 26.9324C87.6469 26.4468 88.5763 26.204 89.7591 26.204C91.0265 26.204 91.977 26.4679 92.6107 26.9957C93.2655 27.5024 93.6985 28.2096 93.9097 29.1174C94.1209 30.0041 94.2266 31.0069 94.2266 32.1258V32.8541H92.6424V32.1258C92.6424 30.8802 92.5368 29.9302 92.3255 29.2757C92.1354 28.6002 91.8291 28.1357 91.4067 27.8824C90.9842 27.6079 90.4351 27.4707 89.7591 27.4707C88.9354 27.4707 88.3122 27.6713 87.8898 28.0724C87.4673 28.4524 87.1822 29.0752 87.0343 29.9408C86.8865 30.8063 86.8125 31.9675 86.8125 33.4242V38.1743C86.8125 40.1588 87.0026 41.5943 87.3829 42.481C87.7842 43.3677 88.5868 43.8111 89.7908 43.8111C90.6146 43.8111 91.2271 43.6316 91.6285 43.2727C92.0509 42.9138 92.3255 42.3544 92.4523 41.5943C92.579 40.8343 92.6424 39.8526 92.6424 38.6493V37.9526H94.2266V38.6176C94.2266 39.8421 94.1315 40.9399 93.9414 41.911C93.7513 42.8821 93.3394 43.6527 92.7057 44.2227C92.0721 44.7927 91.0899 45.0777 89.7591 45.0777Z" fill="#153D48"/>
<path d="M101.672 45.0777C100.701 45.0777 99.8663 44.8877 99.1692 44.5077C98.4722 44.1066 97.9336 43.3994 97.5534 42.386C97.1943 41.3516 97.0147 39.8949 97.0147 38.0159V33.1392C97.0147 31.218 97.2048 29.7613 97.585 28.7691C97.9652 27.7768 98.5039 27.1012 99.2009 26.7423C99.9191 26.3835 100.753 26.204 101.704 26.204C102.845 26.204 103.742 26.4468 104.397 26.9324C105.052 27.4179 105.517 28.199 105.791 29.2757C106.066 30.3313 106.203 31.7352 106.203 33.4875V35.2292H98.694V38.1426C98.694 39.5993 98.789 40.7393 98.9791 41.5627C99.1904 42.386 99.5178 42.9666 99.9613 43.3044C100.405 43.6422 100.975 43.8111 101.672 43.8111C102.116 43.8111 102.559 43.7372 103.003 43.5894C103.447 43.4416 103.816 43.0933 104.112 42.5444C104.408 41.9955 104.555 41.1404 104.555 39.9793V38.6176H106.203V39.821C106.203 41.3832 105.876 42.6499 105.221 43.621C104.587 44.5922 103.404 45.0777 101.672 45.0777ZM98.694 34.2158H104.555V32.7908C104.555 31.693 104.492 30.7535 104.365 29.9724C104.26 29.1702 104.006 28.5579 103.605 28.1357C103.204 27.6924 102.57 27.4707 101.704 27.4707C101.028 27.4707 100.458 27.6185 99.993 27.914C99.5494 28.1885 99.222 28.7163 99.0108 29.4974C98.7996 30.2574 98.694 31.3658 98.694 32.8225V34.2158Z" fill="#153D48"/>
<path d="M109.939 44.7927V19.1422H115.547C117.258 19.1422 118.588 19.4694 119.539 20.1239C120.489 20.7783 121.155 21.665 121.535 22.7839C121.915 23.9028 122.105 25.1484 122.105 26.5207V37.1609C122.105 38.6176 121.915 39.9265 121.535 41.0877C121.155 42.2277 120.5 43.1355 119.571 43.8111C118.662 44.4655 117.374 44.7927 115.705 44.7927H109.939ZM111.65 43.431H115.61C117.004 43.431 118.039 43.1355 118.715 42.5444C119.391 41.9532 119.835 41.1721 120.046 40.201C120.257 39.2087 120.363 38.132 120.363 36.9709V26.6473C120.363 25.4018 120.236 24.3251 119.983 23.4173C119.729 22.4884 119.254 21.7811 118.557 21.2956C117.86 20.7889 116.856 20.5355 115.547 20.5355H111.65V43.431Z" fill="#153D48"/>
<path d="M129.982 45.0777C128.778 45.0777 127.838 44.8139 127.162 44.2861C126.507 43.7583 126.043 42.9771 125.768 41.9427C125.515 40.9082 125.388 39.631 125.388 38.1109V33.1708C125.388 31.6508 125.515 30.3735 125.768 29.3391C126.043 28.3046 126.507 27.5235 127.162 26.9957C127.838 26.4679 128.778 26.204 129.982 26.204C131.207 26.204 132.147 26.4679 132.802 26.9957C133.478 27.5235 133.942 28.3046 134.196 29.3391C134.471 30.3524 134.608 31.6297 134.608 33.1708V38.1109C134.608 39.631 134.471 40.9082 134.196 41.9427C133.942 42.9771 133.478 43.7583 132.802 44.2861C132.147 44.8139 131.207 45.0777 129.982 45.0777ZM129.982 43.8111C130.869 43.8111 131.524 43.5894 131.946 43.146C132.369 42.6816 132.633 42.0271 132.739 41.1827C132.865 40.3382 132.929 39.3354 132.929 38.1743V33.1075C132.929 31.9252 132.865 30.9224 132.739 30.0991C132.633 29.2546 132.369 28.6107 131.946 28.1674C131.524 27.7029 130.869 27.4707 129.982 27.4707C129.095 27.4707 128.44 27.7029 128.018 28.1674C127.616 28.6107 127.352 29.2546 127.226 30.0991C127.12 30.9224 127.067 31.9252 127.067 33.1075V38.1743C127.067 39.3354 127.12 40.3382 127.226 41.1827C127.352 42.0271 127.616 42.6816 128.018 43.146C128.44 43.5894 129.095 43.8111 129.982 43.8111Z" fill="#153D48"/>
<path d="M142.46 50.9995C141.192 50.9995 140.115 50.8834 139.228 50.6512C138.341 50.419 137.665 50.0601 137.2 49.5745C136.756 49.0889 136.535 48.4873 136.535 47.7695C136.535 47.1361 136.693 46.545 137.01 45.9961C137.348 45.4683 137.76 44.9933 138.246 44.5711C138.753 44.1277 139.27 43.7688 139.798 43.4944C139.017 43.2833 138.446 43.0299 138.087 42.7344C137.749 42.4177 137.58 41.9955 137.58 41.4677C137.58 40.8765 137.791 40.3276 138.214 39.821C138.636 39.2932 139.186 38.7443 139.861 38.1743C138.953 37.5198 138.319 36.6965 137.96 35.7042C137.622 34.712 137.453 33.6458 137.453 32.5058C137.453 31.4925 137.622 30.5108 137.96 29.5607C138.319 28.5896 138.869 27.7874 139.608 27.154C140.368 26.5207 141.351 26.204 142.555 26.204C143.674 26.204 144.54 26.4573 145.153 26.964C145.786 27.4707 146.272 28.0302 146.61 28.6424C146.821 28.2413 147.159 27.8296 147.624 27.4074C148.089 26.964 148.575 26.6579 149.081 26.489L149.525 26.3307L150 27.5974C149.641 27.6818 149.272 27.819 148.891 28.009C148.511 28.199 148.163 28.4207 147.846 28.6741C147.529 28.9063 147.265 29.1596 147.054 29.4341C147.223 29.8352 147.36 30.363 147.466 31.0174C147.592 31.6508 147.656 32.1575 147.656 32.5375C147.656 33.7408 147.487 34.8281 147.149 35.7992C146.811 36.7703 146.272 37.5409 145.533 38.1109C144.794 38.6809 143.822 38.9659 142.618 38.9659C142.28 38.9659 141.921 38.9343 141.541 38.8709C141.182 38.8076 140.886 38.7337 140.654 38.6493C140.252 39.0504 139.883 39.4726 139.545 39.916C139.207 40.3382 139.038 40.7499 139.038 41.151C139.038 41.4888 139.154 41.7421 139.386 41.911C139.64 42.0799 140.03 42.2171 140.558 42.3227L143.537 42.861C145.036 43.1355 146.209 43.5894 147.054 44.2227C147.92 44.8561 148.353 45.7639 148.353 46.9461C148.353 47.8961 148.078 48.6667 147.529 49.2578C146.98 49.8701 146.262 50.3134 145.374 50.5879C144.487 50.8623 143.516 50.9995 142.46 50.9995ZM142.46 49.6378C143.706 49.6378 144.762 49.4267 145.628 49.0045C146.494 48.5823 146.927 47.9067 146.927 46.9778C146.927 46.5344 146.821 46.1333 146.61 45.7744C146.42 45.4155 146.04 45.0989 145.469 44.8244C144.899 44.55 144.044 44.3177 142.903 44.1277L140.907 43.7794C140.548 43.9905 140.136 44.265 139.671 44.6027C139.228 44.9405 138.837 45.3311 138.499 45.7744C138.161 46.2389 137.992 46.7667 137.992 47.3578C137.992 48.16 138.372 48.7406 139.133 49.0995C139.914 49.4584 141.023 49.6378 142.46 49.6378ZM142.618 37.7309C143.399 37.7309 144.023 37.562 144.487 37.2242C144.952 36.8653 145.3 36.422 145.533 35.8942C145.765 35.3453 145.913 34.7753 145.976 34.1842C146.061 33.5719 146.103 33.0125 146.103 32.5058C146.103 32.0202 146.05 31.4925 145.945 30.9224C145.86 30.3313 145.691 29.7719 145.438 29.2441C145.184 28.7163 144.825 28.2835 144.361 27.9457C143.917 27.6079 143.326 27.439 142.586 27.439C141.847 27.439 141.245 27.6185 140.78 27.9774C140.316 28.3363 139.946 28.7902 139.671 29.3391C139.418 29.888 139.238 30.4474 139.133 31.0174C139.048 31.5875 139.006 32.0836 139.006 32.5058C139.006 32.9914 139.048 33.5403 139.133 34.1525C139.217 34.7436 139.386 35.3136 139.64 35.8625C139.893 36.4114 140.252 36.8653 140.717 37.2242C141.203 37.562 141.836 37.7309 142.618 37.7309Z" fill="#153D48"/>
</svg>
