<svg width="20" height="20" viewBox="0 0 20 20" fill="none" xmlns="http://www.w3.org/2000/svg">
<path d="M10.0373 20.0001C4.53493 20.0001 0.074707 15.5398 0.074707 10.0375C0.074707 4.53519 4.53493 0.0749741 10.0373 0.0749741C15.5396 0.0749741 19.9998 4.53519 19.9998 10.0375C19.9998 15.5398 15.5396 20.0001 10.0373 20.0001ZM10.0373 1.15876C5.1602 1.15876 1.1585 5.16046 1.1585 10.0375C1.1585 14.9146 5.1602 18.9163 10.0373 18.9163C14.9143 18.9163 18.916 14.9146 18.916 10.0375C18.916 5.11877 14.9143 1.15876 10.0373 1.15876Z" fill="#333333"/>
<path d="M6.95277 6.8695C7.1195 6.41097 7.32793 6.03581 7.61972 5.74402C7.91151 5.45223 8.28666 5.20213 8.70351 5.03539C9.12035 4.86866 9.62056 4.78529 10.1625 4.78529C10.5793 4.78529 10.9961 4.86865 11.3713 4.99371C11.7465 5.11876 12.0799 5.32718 12.3717 5.5356C12.6635 5.74402 12.8719 6.0775 13.0387 6.41097C13.2054 6.74445 13.2888 7.16129 13.2888 7.61982C13.2888 8.2034 13.1637 8.66193 12.9136 9.07877C12.6635 9.49561 12.33 9.87077 11.9549 10.2459C11.6214 10.5794 11.3713 10.8295 11.2046 10.9962C10.9961 11.163 10.8711 11.3714 10.7877 11.5381C10.7044 11.7049 10.621 11.9133 10.621 12.1634C10.5793 12.4135 10.5793 12.5803 10.5793 13.0388H9.62056C9.62056 12.5803 9.62056 12.3718 9.70393 12.08C9.74562 11.7466 9.87067 11.4965 9.99572 11.2047C10.1208 10.9546 10.3292 10.7045 10.5376 10.4544C10.7877 10.2042 11.0378 9.95414 11.3713 9.66235C11.6631 9.41224 11.9132 9.12046 12.0799 8.78698C12.2884 8.45351 12.3717 8.07835 12.3717 7.70319C12.3717 7.4114 12.33 7.11961 12.205 6.8695C12.0799 6.6194 11.9132 6.41097 11.7465 6.20255C11.5797 5.99413 11.3296 5.86908 11.0378 5.78571C10.7877 5.70234 10.4959 5.61897 10.2041 5.61897C9.7873 5.61897 9.41214 5.70234 9.12035 5.82739C8.78687 5.95245 8.53677 6.16087 8.32835 6.41097C8.11993 6.66108 7.95319 6.95287 7.86982 7.28634C7.78645 7.61982 7.70309 7.91161 7.74477 8.28676H6.78603C6.74435 7.70318 6.78603 7.32803 6.95277 6.8695ZM9.45382 14.1643H10.621V15.3314H9.45382V14.1643Z" fill="#333333"/>
</svg>
