<svg width="18" height="24" viewBox="0 0 18 24" fill="none" xmlns="http://www.w3.org/2000/svg">
<path d="M14.7777 19.5555H3.22217V20.4444H14.7777V19.5555Z" fill="#333333"/>
<path d="M9.44439 6.22223H3.22217V7.11112H9.44439V6.22223Z" fill="#333333"/>
<path d="M14.7777 16.8889H3.22217V17.7778H14.7777V16.8889Z" fill="#333333"/>
<path d="M9.44439 3.55554H3.22217V4.44443H9.44439V3.55554Z" fill="#333333"/>
<path d="M12.1112 0H11.6668H2.33344C1.35564 0 0.555664 0.799977 0.555664 1.77778V22.2222C0.555664 23.2 1.35564 24 2.33344 24H15.6668C16.6445 24 17.4446 23.2 17.4446 22.2222V6.66669V6.22227L12.1112 0ZM12.1112 1.33336L16.289 6.22227H13.0001C12.5557 6.22227 12.1112 5.77785 12.1112 5.33338V1.33336ZM16.5557 22.2222C16.5557 22.6666 16.2001 23.1111 15.6668 23.1111H2.33344C1.88902 23.1111 1.44455 22.7556 1.44455 22.2222V1.77778C1.44455 1.33336 1.80011 0.888889 2.33344 0.888889H11.2223V5.33333C11.2223 6.31113 12.0224 7.11111 13.0001 7.11111H16.5557V22.2222Z" fill="#333333"/>
<path d="M14.7777 14.2222H3.22217V15.1111H14.7777V14.2222Z" fill="#333333"/>
<path d="M14.7777 8.88889H3.22217V9.77777H14.7777V8.88889Z" fill="#333333"/>
<path d="M14.7777 11.5555H3.22217V12.4444H14.7777V11.5555Z" fill="#333333"/>
</svg>
