<svg width="23" height="23" viewBox="0 0 23 23" fill="none" xmlns="http://www.w3.org/2000/svg">
<path d="M13.7001 6.3C13.5169 6.48693 13.4142 6.73825 13.4142 7C13.4142 7.26175 13.5169 7.51307 13.7001 7.7L15.3001 9.3C15.487 9.48323 15.7383 9.58586 16.0001 9.58586C16.2619 9.58586 16.5132 9.48323 16.7001 9.3L20.4701 5.53C20.9729 6.64119 21.1252 7.87923 20.9066 9.07914C20.6879 10.2791 20.1088 11.3838 19.2464 12.2463C18.3839 13.1087 17.2792 13.6878 16.0792 13.9065C14.8793 14.1251 13.6413 13.9728 12.5301 13.47L5.6201 20.38C5.22227 20.7778 4.68271 21.0013 4.1201 21.0013C3.55749 21.0013 3.01792 20.7778 2.6201 20.38C2.22227 19.9822 1.99878 19.4426 1.99878 18.88C1.99878 18.3174 2.22227 17.7778 2.6201 17.38L9.5301 10.47C9.02726 9.35881 8.87502 8.12076 9.09364 6.92085C9.31227 5.72094 9.89139 4.61615 10.7538 3.75372C11.6163 2.89129 12.721 2.31217 13.921 2.09354C15.1209 1.87491 16.3589 2.02716 17.4701 2.53L13.7101 6.29L13.7001 6.3Z" stroke="#FFA633" stroke-width="2" stroke-linecap="round" stroke-linejoin="round"/>
</svg>
