<svg width="748" height="28" viewBox="0 0 748 28" fill="none" xmlns="http://www.w3.org/2000/svg">
<rect x="0.222656" y="4.66667" width="3.73566" height="18.6667" rx="1" fill="#E6E8F8"/>
<rect x="323.359" y="4.66667" width="3.73566" height="18.6667" rx="1" fill="#E6E8F8"/>
<rect x="646.492" y="4.66667" width="3.73566" height="18.6667" rx="1" fill="#E6E8F8"/>
<rect x="286" y="4.66667" width="3.73566" height="18.6667" rx="1" fill="#E6E8F8"/>
<rect x="609.133" y="4.66667" width="3.73566" height="18.6667" rx="1" fill="#E6E8F8"/>
<rect x="74.9375" y="4.66667" width="3.73566" height="18.6667" rx="1" fill="#E6E8F8"/>
<rect x="398.07" y="4.66667" width="3.73566" height="18.6667" rx="1" fill="#E6E8F8"/>
<rect x="185.137" y="4.66667" width="3.73566" height="18.6667" rx="1" fill="#E6E8F8"/>
<rect x="508.273" y="4.66667" width="3.73566" height="18.6667" rx="1" fill="#E6E8F8"/>
<rect x="250.512" y="4.66667" width="3.73566" height="18.6667" rx="1" fill="#E6E8F8"/>
<rect x="573.645" y="4.66667" width="3.73566" height="18.6667" rx="1" fill="#E6E8F8"/>
<rect x="125.367" y="4.66667" width="3.73566" height="18.6667" rx="1" fill="#E6E8F8"/>
<rect x="448.5" y="4.66667" width="3.73566" height="18.6667" rx="1" fill="#E6E8F8"/>
<rect x="22.6367" y="4.66667" width="3.73566" height="18.6667" rx="1" fill="#E6E8F8"/>
<rect x="345.773" y="4.66667" width="3.73566" height="18.6667" rx="1" fill="#E6E8F8"/>
<rect x="668.906" y="4.66667" width="3.73566" height="18.6667" rx="1" fill="#E6E8F8"/>
<rect x="728.941" y="4.66667" width="3.73566" height="18.6667" rx="1" fill="#E6E8F8"/>
<rect x="691.32" y="4.66667" width="3.73566" height="18.6667" rx="1" fill="#E6E8F8"/>
<rect x="308.414" y="4.66667" width="3.73566" height="18.6667" rx="1" fill="#E6E8F8"/>
<rect x="631.551" y="4.66667" width="3.73566" height="18.6667" rx="1" fill="#E6E8F8"/>
<rect x="52.5234" y="4.66667" width="3.73566" height="18.6667" rx="1" fill="#E6E8F8"/>
<rect x="375.656" y="4.66667" width="3.73566" height="18.6667" rx="1" fill="#E6E8F8"/>
<rect x="162.727" y="4.66667" width="3.73566" height="18.6667" rx="1" fill="#E6E8F8"/>
<rect x="485.855" y="4.66667" width="3.73566" height="18.6667" rx="1" fill="#E6E8F8"/>
<rect x="228.098" y="4.66667" width="3.73566" height="18.6667" rx="1" fill="#E6E8F8"/>
<rect x="551.23" y="4.66667" width="3.73566" height="18.6667" rx="1" fill="#E6E8F8"/>
<rect x="30.1094" y="8.40001" width="3.73566" height="11.2" rx="1" fill="#E6E8F8"/>
<rect x="353.242" y="8.40001" width="3.73566" height="11.2" rx="1" fill="#E6E8F8"/>
<rect x="676.379" y="8.40001" width="3.73566" height="11.2" rx="1" fill="#E6E8F8"/>
<rect x="736.414" y="8.40001" width="3.73566" height="11.2" rx="1" fill="#E6E8F8"/>
<rect x="698.789" y="8.40001" width="3.73566" height="11.2" rx="1" fill="#E6E8F8"/>
<rect x="315.887" y="8.40001" width="3.73566" height="11.2" rx="1" fill="#E6E8F8"/>
<rect x="639.02" y="8.40001" width="3.73566" height="11.2" rx="1" fill="#E6E8F8"/>
<rect x="80.5391" y="8.40001" width="3.73566" height="11.2" rx="1" fill="#E6E8F8"/>
<rect x="403.672" y="8.40001" width="3.73566" height="11.2" rx="1" fill="#E6E8F8"/>
<rect x="190.738" y="8.40001" width="3.73566" height="11.2" rx="1" fill="#E6E8F8"/>
<rect x="513.875" y="8.40001" width="3.73566" height="11.2" rx="1" fill="#E6E8F8"/>
<rect x="256.113" y="8.40001" width="3.73566" height="11.2" rx="1" fill="#E6E8F8"/>
<rect x="579.25" y="8.40001" width="3.73566" height="11.2" rx="1" fill="#E6E8F8"/>
<rect x="88.0117" y="8.40001" width="3.73566" height="11.2" rx="1" fill="#E6E8F8"/>
<rect x="411.148" y="8.40001" width="3.73566" height="11.2" rx="1" fill="#E6E8F8"/>
<rect x="198.215" y="8.40001" width="3.73566" height="11.2" rx="1" fill="#E6E8F8"/>
<rect x="521.348" y="8.40001" width="3.73566" height="11.2" rx="1" fill="#E6E8F8"/>
<rect x="263.59" y="8.40001" width="3.73566" height="11.2" rx="1" fill="#E6E8F8"/>
<rect x="586.719" y="8.40001" width="3.73566" height="11.2" rx="1" fill="#E6E8F8"/>
<rect x="117.895" y="8.40001" width="3.73566" height="11.2" rx="1" fill="#E6E8F8"/>
<rect x="441.031" y="8.40001" width="3.73566" height="11.2" rx="1" fill="#E6E8F8"/>
<rect x="95.4805" y="11.2" width="3.73566" height="5.6" rx="1" fill="#E6E8F8"/>
<rect x="418.617" y="11.2" width="3.73566" height="5.6" rx="1" fill="#E6E8F8"/>
<rect x="205.684" y="11.2" width="3.73566" height="5.6" rx="1" fill="#E6E8F8"/>
<rect x="528.82" y="11.2" width="3.73566" height="5.6" rx="1" fill="#E6E8F8"/>
<rect x="271.059" y="11.2" width="3.73566" height="5.6" rx="1" fill="#E6E8F8"/>
<rect x="594.195" y="11.2" width="3.73566" height="5.6" rx="1" fill="#E6E8F8"/>
<rect x="706.262" y="11.2" width="3.73566" height="5.6" rx="1" fill="#E6E8F8"/>
<rect x="102.953" y="11.2" width="3.73566" height="5.6" rx="1" fill="#E6E8F8"/>
<rect x="426.086" y="11.2" width="3.73566" height="5.6" rx="1" fill="#E6E8F8"/>
<rect x="213.156" y="11.2" width="3.73566" height="5.6" rx="1" fill="#E6E8F8"/>
<rect x="536.289" y="11.2" width="3.73566" height="5.6" rx="1" fill="#E6E8F8"/>
<rect x="278.527" y="11.2" width="3.73566" height="5.6" rx="1" fill="#E6E8F8"/>
<rect x="601.664" y="11.2" width="3.73566" height="5.6" rx="1" fill="#E6E8F8"/>
<rect x="110.426" y="11.2" width="3.73566" height="5.6" rx="1" fill="#E6E8F8"/>
<rect x="433.559" y="11.2" width="3.73566" height="5.6" rx="1" fill="#E6E8F8"/>
<rect x="7.69141" width="3.73566" height="28" rx="1" fill="#E6E8F8"/>
<rect x="330.828" width="3.73566" height="28" rx="1" fill="#E6E8F8"/>
<rect x="653.965" width="3.73566" height="28" rx="1" fill="#E6E8F8"/>
<rect x="714" width="3.73566" height="28" rx="1" fill="#E6E8F8"/>
<rect x="293.473" width="3.73566" height="28" rx="1" fill="#E6E8F8"/>
<rect x="616.609" width="3.73566" height="28" rx="1" fill="#E6E8F8"/>
<rect x="37.5781" width="3.73566" height="28" rx="1" fill="#E6E8F8"/>
<rect x="360.715" width="3.73566" height="28" rx="1" fill="#E6E8F8"/>
<rect x="140.312" width="3.73566" height="28" rx="1" fill="#E6E8F8"/>
<rect x="463.445" width="3.73566" height="28" rx="1" fill="#E6E8F8"/>
<rect x="45.0508" width="3.73566" height="28" rx="1" fill="#E6E8F8"/>
<rect x="368.184" width="3.73566" height="28" rx="1" fill="#E6E8F8"/>
<rect x="155.25" width="3.73566" height="28" rx="1" fill="#E6E8F8"/>
<rect x="478.387" width="3.73566" height="28" rx="1" fill="#E6E8F8"/>
<rect x="220.625" width="3.73566" height="28" rx="1" fill="#E6E8F8"/>
<rect x="543.762" width="3.73566" height="28" rx="1" fill="#E6E8F8"/>
<rect x="147.781" width="3.73566" height="28" rx="1" fill="#E6E8F8"/>
<rect x="470.918" width="3.73566" height="28" rx="1" fill="#E6E8F8"/>
<rect x="67.4648" width="3.73566" height="28" rx="1" fill="#E6E8F8"/>
<rect x="390.598" width="3.73566" height="28" rx="1" fill="#E6E8F8"/>
<rect x="177.668" width="3.73566" height="28" rx="1" fill="#E6E8F8"/>
<rect x="500.801" width="3.73566" height="28" rx="1" fill="#E6E8F8"/>
<rect x="243.039" width="3.73566" height="28" rx="1" fill="#E6E8F8"/>
<rect x="566.176" width="3.73566" height="28" rx="1" fill="#E6E8F8"/>
<rect x="15.168" y="2.80002" width="3.73566" height="22.4" rx="1" fill="#E6E8F8"/>
<rect x="338.297" y="2.80002" width="3.73566" height="22.4" rx="1" fill="#E6E8F8"/>
<rect x="661.434" y="2.80002" width="3.73566" height="22.4" rx="1" fill="#E6E8F8"/>
<rect x="721.469" y="2.80002" width="3.73566" height="22.4" rx="1" fill="#E6E8F8"/>
<rect x="683.848" y="2.80002" width="3.73566" height="22.4" rx="1" fill="#E6E8F8"/>
<rect x="743.883" y="2.80002" width="3.73566" height="22.4" rx="1" fill="#E6E8F8"/>
<rect x="300.945" y="2.80002" width="3.73566" height="22.4" rx="1" fill="#E6E8F8"/>
<rect x="624.078" y="2.80002" width="3.73566" height="22.4" rx="1" fill="#E6E8F8"/>
<rect x="59.9922" y="2.80002" width="3.73566" height="22.4" rx="1" fill="#E6E8F8"/>
<rect x="383.129" y="2.80002" width="3.73566" height="22.4" rx="1" fill="#E6E8F8"/>
<rect x="170.195" y="2.80002" width="3.73566" height="22.4" rx="1" fill="#E6E8F8"/>
<rect x="493.332" y="2.80002" width="3.73566" height="22.4" rx="1" fill="#E6E8F8"/>
<rect x="235.57" y="2.80002" width="3.73566" height="22.4" rx="1" fill="#E6E8F8"/>
<rect x="558.707" y="2.80002" width="3.73566" height="22.4" rx="1" fill="#E6E8F8"/>
<rect x="132.836" y="2.80002" width="3.73566" height="22.4" rx="1" fill="#E6E8F8"/>
<rect x="455.973" y="2.80002" width="3.73566" height="22.4" rx="1" fill="#E6E8F8"/>
</svg>
