<?xml version="1.0" encoding="utf-8"?><svg viewBox="0 0 748 60" xmlns="http://www.w3.org/2000/svg" xmlns:xlink="http://www.w3.org/1999/xlink"><style>:root>svg{display:none}:root>svg:target{display:block}</style><svg  viewBox="0 0 24 24" id="alert-circle" xmlns="http://www.w3.org/2000/svg"><path d="M12 22c5.523 0 10-4.477 10-10S17.523 2 12 2 2 6.477 2 12s4.477 10 10 10ZM12 8v4M12 16h.01"  stroke-width="2" stroke-linecap="round" stroke-linejoin="round"/></svg><svg  viewBox="0 0 24 24" id="alert-triangle" xmlns="http://www.w3.org/2000/svg"><path d="M10.29 3.86 1.82 18a2 2 0 0 0 1.71 3h16.94a2 2 0 0 0 1.71-3L13.71 3.86a2 2 0 0 0-3.42 0v0ZM12 9v4M12 17h.01"  stroke-width="2" stroke-linecap="round" stroke-linejoin="round"/></svg><svg  viewBox="0 0 14 8" id="arrow-down" xmlns="http://www.w3.org/2000/svg"><path d="m1 1 6 6 6-6"  stroke-width="2" stroke-linecap="round" stroke-linejoin="round"/></svg><svg  viewBox="0 0 24 24" id="bell" xmlns="http://www.w3.org/2000/svg"><path d="M18 8A6 6 0 1 0 6 8c0 7-3 9-3 9h18s-3-2-3-9ZM13.73 21a1.999 1.999 0 0 1-3.46 0"  stroke-width="2" stroke-linecap="round" stroke-linejoin="round"/></svg><svg  viewBox="0 0 18 13" id="check" xmlns="http://www.w3.org/2000/svg"><path d="M17 1 6 12 1 7"  stroke-width="2" stroke-linecap="round" stroke-linejoin="round"/></svg><svg  viewBox="0 0 60 60" id="check-circle" xmlns="http://www.w3.org/2000/svg"><path d="M55 27.7V30A25 25 0 1 1 40.175 7.15"  stroke-width="2" stroke-linecap="round" stroke-linejoin="round"/><path d="M55 10 30 35.025l-7.5-7.5"  stroke-width="2" stroke-linecap="round" stroke-linejoin="round"/></svg><svg  viewBox="0 0 24 24" id="checks" xmlns="http://www.w3.org/2000/svg"><path d="m23.47 4.147-1.058-1.059c-.706-.706-1.765-.706-2.47 0l-3.177 3.177L11.47.088H1.765A1.77 1.77 0 0 0 0 1.853v20.294c0 .97.794 1.765 1.765 1.765H15a1.77 1.77 0 0 0 1.765-1.765v-8.823l6.706-6.706c.706-.706.706-1.765 0-2.47Zm-12-2.735 4.148 4.853h-3.265c-.441 0-.882-.441-.882-.883v-3.97Zm4.412 20.735a.884.884 0 0 1-.882.882H1.765a.884.884 0 0 1-.883-.882V1.853c0-.441.353-.882.883-.882h8.823v4.411c0 .971.794 1.765 1.765 1.765h3.53l-8.824 8.824-.883 4.411 4.412-.882 5.294-5.294v7.941ZM7.852 16.5l2.207 2.206-2.736.53.53-2.736Zm2.913 1.588L8.47 15.794l9.882-9.882 2.294 2.294-9.882 9.882ZM22.853 6l-1.5 1.5-2.294-2.294 1.5-1.5a.853.853 0 0 1 1.235 0l1.059 1.059a.853.853 0 0 1 0 1.235Z" /></svg><svg  viewBox="0 0 24 24" id="clock" xmlns="http://www.w3.org/2000/svg"><path d="M12 22c5.523 0 10-4.477 10-10S17.523 2 12 2 2 6.477 2 12s4.477 10 10 10Z"  stroke-width="2" stroke-linecap="round" stroke-linejoin="round"/><path d="M12 6v6l4 2"  stroke-width="2" stroke-linecap="round" stroke-linejoin="round"/></svg><svg  viewBox="0 0 24 24" id="docs" xmlns="http://www.w3.org/2000/svg"><path d="M20.444 7.467V4.444c0-.977-.8-1.777-1.777-1.777h-3.645L12 0 8.978 2.667H5.333c-.978 0-1.778.8-1.778 1.777v3.023L.89 9.777v12.445c0 .978.8 1.778 1.777 1.778h18.667c.978 0 1.778-.8 1.778-1.778V9.778l-2.667-2.311Zm0 1.155 1.334 1.156-1.334 1.155v-2.31ZM12 1.156l1.689 1.51h-3.467L12 1.157ZM4.444 4.444c0-.533.356-.888.89-.888h13.332c.445 0 .89.444.89.888v7.2l-5.867 5.245h.088-3.022 1.511-2.044l-5.778-5.156V4.444Zm-.889 4.178v2.4L2.222 9.778l1.333-1.156Zm-1.51 14.223a.807.807 0 0 1-.267-.623V10.667l7.11 6.222-6.844 5.956Zm1.066.266 6.222-5.333h5.333l6.223 5.333H3.11Zm19.111-6.667v5.778a.807.807 0 0 1-.267.622l-6.844-5.955 7.111-6.222v5.777Z" /></svg><svg  viewBox="0 0 24 24" id="download" xmlns="http://www.w3.org/2000/svg"><path d="M21 15v4a2 2 0 0 1-2 2H5a2 2 0 0 1-2-2v-4M7 10l5 5 5-5M12 15V3"  stroke-width="2" stroke-linecap="round" stroke-linejoin="round"/></svg><svg  viewBox="0 0 24 24" id="edit" xmlns="http://www.w3.org/2000/svg"><path d="M12 20h9M16.5 3.5a2.121 2.121 0 1 1 3 3L7 19l-4 1 1-4L16.5 3.5Z"  stroke-width="2" stroke-linecap="round" stroke-linejoin="round"/></svg><svg  viewBox="0 0 24 24" id="home" xmlns="http://www.w3.org/2000/svg"><path d="m3 9 9-7 9 7v11a2 2 0 0 1-2 2H5a2 2 0 0 1-2-2V9Z"  stroke-width="2" stroke-linecap="round" stroke-linejoin="round"/><path d="M9 22V12h6v10"  stroke-width="2" stroke-linecap="round" stroke-linejoin="round"/></svg><svg  viewBox="0 0 24 22" id="import" xmlns="http://www.w3.org/2000/svg"><path d="M7.68 8.6 12 12.92l4.32-4.32-.768-.672L12.48 11V.44h-.96V11L8.448 7.928 7.68 8.6Z" /><path d="M19.2 5.24h-5.76v.96h5.184l4.224 6.72H16.32v1.92c0 1.056-.864 1.92-1.92 1.92H9.6a1.926 1.926 0 0 1-1.92-1.92v-1.92H1.152L5.376 6.2h5.184v-.96H4.8L0 12.92v8.64h24v-8.64l-4.8-7.68Zm3.84 15.36H.96v-6.72h5.76v1.44c0 1.344 1.056 2.4 2.4 2.4h5.76c1.344 0 2.4-1.056 2.4-2.4v-1.44h5.76v6.72Z" /></svg><svg  viewBox="0 0 24 24" id="list" xmlns="http://www.w3.org/2000/svg"><path d="M8 6h13M8 12h13M8 18h13M3 6h.01M3 12h.01M3 18h.01"  stroke-width="2" stroke-linecap="round" stroke-linejoin="round"/></svg><svg  viewBox="0 0 24 24" id="log-out" xmlns="http://www.w3.org/2000/svg"><path d="M9 21H5a2 2 0 0 1-2-2V5a2 2 0 0 1 2-2h4M16 17l5-5-5-5M21 12H9"  stroke-width="2" stroke-linecap="round" stroke-linejoin="round"/></svg><svg  viewBox="0 0 150 51" id="logo" xmlns="http://www.w3.org/2000/svg"><path fill-rule="evenodd" clip-rule="evenodd" d="M19.834.581c-.117-.08-.203-.098-.262-.092-.024.002-.064.012-.114.11-.054.104-.098.27-.124.504-.053.465-.032 1.104.014 1.816.018.285.04.582.063.882.033.435.066.873.087 1.281.036.688.041 1.336-.05 1.796-.13.645-.105 1.602-.014 2.556.085.89.224 1.753.334 2.314.494.302.779.648 1.131 1.077l.162.195c.46.552 1.118 1.287 2.493 2.347a.244.244 0 1 1-.298.386c-1.407-1.085-2.09-1.846-2.57-2.42l-.165-.2c-.363-.439-.6-.726-1.037-.987h-4.172c-.379.19-.9.577-1.384 1.031-.506.476-.934.992-1.109 1.385a.244.244 0 0 1-.446-.198c.216-.485.703-1.055 1.22-1.542a8.23 8.23 0 0 1 1.135-.901c-.306-.194-.628-.49-.974-.888-.526-.606-1.128-1.478-1.831-2.664-.787-1.326-1.31-2.418-1.635-3.512-.325-1.095-.449-2.18-.449-3.49a1.52 1.52 0 0 0-.06-.479C9.747.8 9.717.772 9.708.766a.106.106 0 0 0-.031.013.62.62 0 0 0-.191.2c-.312.465-.597 1.575-.287 3.17.14.725.318 1.48.498 2.245l.065.277c.2.857.399 1.72.542 2.549.282 1.637.361 3.204-.253 4.312-.787 1.422-1.771 2.047-2.53 2.516l-.029.018c-.371.229-.658.406-.861.617a1.042 1.042 0 0 0-.306.78c0 .343.01.696.02 1.028l.01.392c.005.216.008.417.004.588-.004.166-.014.32-.04.435a.244.244 0 0 1-.16.177c-.902.303-2.243.912-3.364 1.626-.561.357-1.058.735-1.417 1.107-.365.379-.553.719-.568 1-.077 1.468.033 7.159.34 10.204a.24.24 0 0 1 .002.025c0 .703.526 1.187 1.23 1.39.713.208 1.485.087 1.867-.295.509-.508.994-.68 1.426-.714.127-.01.247-.008.358 0a14.48 14.48 0 0 0-.57-.598 7.16 7.16 0 0 0-.82-.713 2.31 2.31 0 0 0-.365-.22.63.63 0 0 0-.247-.07c-.118 0-.216.053-.311.158-.1.11-.18.26-.256.415l-.032.066c-.025.053-.051.108-.075.153a.777.777 0 0 1-.139.2.335.335 0 0 1-.164.09.304.304 0 0 1-.225-.044.418.418 0 0 1-.119-.12.883.883 0 0 1-.073-.136c-.1-.223-.116-.556-.086-.88.03-.335.116-.706.26-1.024.14-.31.356-.615.673-.744.343-.139.718-.044 1.093.264.423.348.865.769 1.314 1.198l.055.052c.433.415.873.835 1.318 1.216.464.397.925.745 1.378.992.453.248.885.388 1.293.388h.172c.631.005 1.9.012 3.126-.272 1.36-.315 2.561-.964 2.857-2.27.236-1.04.934-2.265 1.664-3.448.165-.268.333-.535.498-.799.573-.913 1.118-1.781 1.466-2.531a.244.244 0 0 1 .442.204c-.361.782-.93 1.688-1.506 2.606-.163.258-.326.518-.485.776-.137.222-.27.443-.4.66.69.125 1.568-.212 2.453-.998.995-.882 1.937-2.283 2.511-4.003a.244.244 0 0 1 .463.154c-.598 1.791-1.583 3.268-2.65 4.214-.981.87-2.087 1.336-3.031 1.076-.446.793-.8 1.545-.949 2.198-.362 1.594-1.82 2.311-3.223 2.636-1.285.298-2.611.29-3.24.285h-.168a2.38 2.38 0 0 1-.146-.005.243.243 0 0 1 .052.096c.719 2.57 1.507 6.048-.153 9.192a.244.244 0 0 1-.432-.228c1.56-2.956.836-6.258.115-8.833a.244.244 0 0 1 .099-.268 3.688 3.688 0 0 1-1.062-.402c-.496-.27-.986-.642-1.462-1.05-.455-.39-.903-.818-1.334-1.23l-.058-.056c-.451-.43-.881-.839-1.288-1.174-.29-.238-.477-.237-.598-.188-.145.06-.291.224-.412.492a2.822 2.822 0 0 0-.224 1.267c.076-.156.18-.354.327-.515a.894.894 0 0 1 .672-.317 1.1 1.1 0 0 1 .451.114c.146.068.297.16.445.267.297.212.604.49.88.762a15.462 15.462 0 0 1 .978 1.067l.008.01.008.008.005.007-.189.155.19-.155a.244.244 0 0 1-.19.398c-.107 0-.232-.015-.347-.03a10.13 10.13 0 0 0-.092-.012 2.34 2.34 0 0 0-.465-.017c-.314.025-.691.145-1.119.573-.555.555-1.54.654-2.349.42-.815-.237-1.575-.851-1.58-1.848-.31-3.07-.42-8.773-.342-10.267.024-.46.315-.908.704-1.312.395-.411.927-.813 1.505-1.18 1.1-.7 2.398-1.3 3.329-1.628.004-.057.008-.127.01-.21.004-.16.001-.35-.004-.565l-.01-.383c-.01-.334-.02-.698-.02-1.05 0-.481.167-.83.442-1.116.247-.258.583-.465.928-.678l.057-.035c.74-.457 1.635-1.028 2.36-2.337.524-.944.481-2.353.199-3.994a43.964 43.964 0 0 0-.536-2.52l-.065-.276c-.18-.764-.36-1.53-.502-2.263-.325-1.672-.048-2.928.36-3.536.103-.152.224-.28.362-.356a.51.51 0 0 1 .487-.02c.155.08.252.232.31.398.058.17.087.385.087.639 0 1.275.12 2.312.43 3.35.308 1.04.81 2.094 1.585 3.402.697 1.175 1.282 2.019 1.78 2.594.486.56.87.841 1.172.944h3.96a25.81 25.81 0 0 1-.306-2.177c-.091-.96-.123-1.978.02-2.699.08-.393.079-.984.043-1.675-.021-.405-.053-.83-.085-1.258-.023-.3-.046-.601-.065-.899-.046-.71-.07-1.39-.012-1.902.029-.255.08-.49.175-.673.098-.19.259-.35.504-.372.209-.02.405.057.58.174.173.118.342.288.503.492.324.407.65.984.965 1.656.63 1.346 1.232 3.116 1.674 4.784a.39.39 0 0 1 .003.01c.184.854.731 1.756 1.311 2.699l.032.052c.557.905 1.138 1.85 1.34 2.76.092.412.068 1.022-.02 1.716a.25.25 0 0 1 .004.042c.01 1.24.067 2.807.131 4.528l.035.921c.076 2.08.149 4.327.149 6.453 0 1.206-.074 2.85-.147 4.271l-.066 1.254c-.046.838-.08 1.47-.08 1.693v.002c-.007.8-.008 1.719-.008 2.675 0 1.233-.002 2.53-.016 3.72a66.154 66.154 0 0 1-.084 2.838c-.045.782-.112 1.412-.222 1.741a.244.244 0 0 1-.463-.154c.086-.257.152-.82.198-1.615.045-.783.07-1.758.083-2.816.015-1.193.015-2.479.016-3.706 0-.95.001-1.864.008-2.674-.163-1.648-1.112-5.083-2.028-7.13a.244.244 0 1 1 .445-.198c.633 1.414 1.281 3.472 1.686 5.184l.044-.839c.073-1.422.146-3.054.146-4.246 0-2.117-.073-4.356-.15-6.435-.01-.31-.022-.617-.033-.92-.03-.796-.058-1.562-.081-2.278a45.901 45.901 0 0 1-.996 3.599c-.248.765-.474 1.375-.622 1.66a.877.877 0 0 1-.062.104.392.392 0 0 1-.046.054.28.28 0 0 1-.106.065.254.254 0 0 1-.231-.035.267.267 0 0 1-.095-.128.406.406 0 0 1-.019-.134c0-.125.037-.347.091-.612.112-.547.318-1.386.562-2.296.245-.91.529-1.897.795-2.742.248-.785.487-1.465.67-1.843.093-.709.112-1.273.036-1.614-.184-.828-.73-1.715-1.31-2.659l-.002-.003c-.566-.92-1.164-1.895-1.371-2.845-.437-1.647-1.03-3.386-1.643-4.696-.308-.658-.615-1.196-.905-1.56a1.888 1.888 0 0 0-.395-.39Zm3.96 21.27v-.002.003ZM3.118 33.474h-.001ZM9.714.766H9.71h.003Zm5.237 13.83c.089-.101.243-.11.344-.021.806.711 1.383.871 1.814.89.21.01.393-.014.578-.038l.04-.005c.188-.024.401-.05.609-.002.431.1.707.476.87.85.167.385.246.833.246 1.192a.244.244 0 0 1-.488 0c0-.299-.067-.68-.205-.997-.142-.326-.33-.523-.533-.57-.11-.025-.238-.015-.438.01-.014.003-.029.004-.044.006-.18.024-.403.052-.656.041-.563-.024-1.243-.241-2.116-1.012a.244.244 0 0 1-.021-.344Zm4.642 6.413c.132.024.22.15.197.284-.221 1.236-.92 1.998-1.722 2.364-.79.36-1.682.335-2.295.001a.244.244 0 1 1 .234-.428c.46.251 1.19.288 1.859-.017.655-.299 1.25-.926 1.444-2.006a.244.244 0 0 1 .283-.198Zm-2.092 3.4a.244.244 0 0 1 .125.322c-.353.796-.661 1.527-.942 2.195l-.068.162a88.447 88.447 0 0 1-.707 1.656c-.482 1.084-.929 1.945-1.477 2.568a3.347 3.347 0 0 1-2.104 1.156c-.874.135-1.96.03-3.371-.282a.244.244 0 1 1 .105-.477c1.394.309 2.407.398 3.19.277.77-.12 1.329-.444 1.814-.996.495-.562.917-1.363 1.397-2.444a87.639 87.639 0 0 0 .772-1.809c.28-.668.59-1.403.945-2.204a.244.244 0 0 1 .321-.124ZM14.588 36.77c-.055-.022-.149-.031-.315.035-.308.123-.52.458-.62 1.026-.098.56-.073 1.282.033 2.056.21 1.546.729 3.232 1.11 4.105a.244.244 0 1 1-.447.196c-.4-.915-.93-2.644-1.147-4.235-.108-.795-.14-1.573-.03-2.206.11-.624.373-1.176.92-1.394.236-.095.466-.12.677-.036.208.083.348.253.448.444.192.368.295.935.402 1.546l.016.091c.218 1.248.49 2.801 1.425 4.033.808 1.063 1.357 1.52 1.78 1.753.212.115.4.179.587.232l.148.04c.143.038.297.08.45.137a.244.244 0 1 1-.17.457c-.13-.049-.25-.08-.386-.117l-.175-.048a3.177 3.177 0 0 1-.688-.273c-.509-.279-1.107-.797-1.934-1.887-1.009-1.327-1.298-2.983-1.512-4.212l-.022-.122c-.112-.64-.204-1.119-.354-1.404-.07-.136-.138-.194-.196-.217Z" /><path fill-rule="evenodd" clip-rule="evenodd" d="M13.212 19.65c-.18.07-.241.094-.004-.117.188-.167.328-.41.467-.651.248-.431.495-.86 1.016-.86.513 0 .823.262 1.234.611.087.074.18.152.278.231.28.226.739.255 1.064.275.22.014.38.024.38.089 0 .068-.179.078-.401.09-.301.018-.682.04-.81.215-.621.61-.984.61-1.454.61-.462.005-.616-.223-.74-.407-.06-.088-.114-.166-.19-.203-.239-.116-.624.034-.84.117Zm1.787.406a.93.93 0 1 0 0-1.86.93.93 0 0 0 0 1.86Z" /><path fill-rule="evenodd" clip-rule="evenodd" d="M15.002 19.853c.53 0 .96-.37.96-.828 0-.457-.43-.828-.96-.828s-.96.37-.96.828c0 .458.43.828.96.828Zm-.44-1.221a.145.145 0 1 1 0 .29.145.145 0 0 1 0-.29ZM9.349 35.09c.202 0 .365.164.365.366 0 .427.107.826.258 1.31l.068.212c.136.426.292.915.4 1.496.258 1.377.247 3.245-.744 6.265a.366.366 0 0 1-.695-.228c.96-2.93.95-4.671.72-5.903-.1-.532-.24-.975-.377-1.401a47.318 47.318 0 0 1-.07-.223c-.154-.49-.291-.98-.291-1.528 0-.202.163-.366.366-.366ZM19.29 1.384s.002 0-.08-.481a13.17 13.17 0 0 1-.08-.481l.004-.001a.53.53 0 0 1 .072-.008 1.01 1.01 0 0 1 .129.002c.1.008.229.03.378.085.3.11.663.338 1.053.782.767.875 1.664 2.62 2.426 6.112.597 1.526.952 2.128 1.707 3.407.197.335.422.716.686 1.173.168.29.257.687.308 1.08.052.408.07.87.062 1.33-.016.904-.135 1.872-.332 2.433a.488.488 0 0 1-.92-.322c.144-.414.26-1.26.276-2.128.008-.427-.01-.84-.054-1.188-.047-.363-.118-.601-.185-.717-.255-.441-.475-.815-.671-1.147-.771-1.306-1.165-1.973-1.8-3.602l-.015-.036-.008-.038c-.75-3.456-1.605-5.02-2.214-5.714-.3-.342-.531-.464-.653-.509a.449.449 0 0 0-.117-.028h-.006.002a.199.199 0 0 0 .027-.004h.005ZM1.072 25.677l-.363.047-.363.047v.006a4.128 4.128 0 0 1 .014.111l.038.362c.032.321.006.223.048.862.085 1.279.17 3.185.17 5.689 0 2.132 1.413 3.048 2.318 3.048.448 0 .853-.149 1.199-.332.317-.169.606-.378.843-.55l.057-.041a5.75 5.75 0 0 1 .33-.227c.065-.04.114-.065.15-.08l.004.01a.366.366 0 0 0 .69-.242.786.786 0 0 0-.32-.43.655.655 0 0 0-.513-.063 1.49 1.49 0 0 0-.395.182 6.418 6.418 0 0 0-.426.294 6.579 6.579 0 0 1-.763.5c-.287.152-.571.247-.856.247-.46 0-1.586-.547-1.586-2.316 0-2.52-.085-4.443-.171-5.737-.043-.647-.018-.557-.05-.886a24.474 24.474 0 0 0-.054-.492v-.006l-.001-.002ZM8.074 15.456a.268.268 0 0 0 .025.378c.327.287.44.477.472.604.03.112.006.216-.076.376a3.58 3.58 0 0 1-.102.177c-.184.31-.45.757-.386 1.41-.002.432-.113.715-.274.915-.165.204-.406.348-.714.456-.31.109-.665.175-1.044.241l-.08.014c-.346.06-.711.124-1.041.226-.732.226-1.591.673-2.3 1.15-.356.24-.68.49-.935.731-.248.234-.458.482-.548.719l.502.19c.044-.117.178-.296.414-.518.228-.216.528-.449.867-.677.68-.457 1.491-.876 2.158-1.082.296-.092.629-.15.984-.212l.072-.012c.374-.066.77-.138 1.129-.264.36-.127.703-.314.954-.625.254-.315.393-.73.393-1.265v-.014l-.001-.014c-.05-.47.112-.748.29-1.052.046-.08.094-.161.139-.248.106-.206.196-.456.12-.755-.073-.285-.284-.564-.64-.875a.269.269 0 0 0-.378.026ZM9.709 1.081 9.587.298c.137-.022.294-.041.437-.027a.679.679 0 0 1 .51.292c.107.158.128.339.138.443.008.09.011.202.015.315l.002.091c.02.587.085 1.692.82 3.66.04.102.075.213.114.336.127.394.293.913.715 1.675.537.97 1.485 2.314 3.258 4.129l.122-.003.817-.02a2006.794 2006.794 0 0 1 2.553-.058H19.19a.652.652 0 0 1 .06.005.91.91 0 0 1 .408.432c-.066.3-.34.515-.383.527a.91.91 0 0 1-.061.009c-.023.002-.08.004-.14.006h-.009l-3.12.082a.489.489 0 0 1-.112-.01l-.09.002-.334.008-.012-.487.011.487-.21.005-.149-.15c-1.914-1.938-2.96-3.4-3.564-4.491-.476-.86-.68-1.5-.804-1.89-.032-.101-.06-.186-.085-.253-.777-2.08-.858-3.292-.881-3.968a37.21 37.21 0 0 1-.004-.117c-.003-.105-.005-.176-.01-.235a.437.437 0 0 0-.007-.051c0 .003.005.018.016.039Z" /><path fill-rule="evenodd" clip-rule="evenodd" d="M22.946 24.541a.487.487 0 0 1 .283.63c-.95 2.499-2.107 3.96-3.136 4.749-.513.393-1.002.623-1.42.723-.21.05-.411.069-.595.053l-.014-.001c-.21.39-.318.772-.442 1.203a16.66 16.66 0 0 1-.19.63c-.27.827-.7 1.677-1.835 2.518l-.03.023-.034.017c-2.087 1.088-3.8 1.06-5.156 1.037-.185-.003-.364-.006-.536-.006a.488.488 0 1 1 0-.975c.185 0 .372.002.561.005 1.337.02 2.804.042 4.645-.908.915-.687 1.238-1.342 1.458-2.014.05-.154.098-.32.147-.493.164-.578.355-1.248.788-1.887l.297-.438.39.312a.928.928 0 0 0 .32-.025c.26-.062.626-.222 1.052-.548.85-.65 1.914-1.944 2.818-4.322a.488.488 0 0 1 .63-.283Zm-4.83 5.175ZM9.582 1.485c.154-.335.273-.322.294-.318a.366.366 0 0 0 .112-.723c-.527-.082-.878.315-1.071.735-.202.44-.318 1.056-.348 1.778-.06 1.454.225 3.448 1.02 5.584.71 1.905.723 4.992-1.54 6.858-.411.13-.93.41-1.34.795-.433.404-.814.992-.7 1.691l.722-.117c-.057-.35.123-.709.478-1.04.35-.328.804-.56 1.113-.646l.073-.02.059-.048c2.66-2.137 2.595-5.65 1.821-7.728-.766-2.058-1.03-3.954-.975-5.298.028-.677.137-1.187.282-1.503ZM2.733 23.654a.244.244 0 0 0-.243.244c0 1.525 0 1.658.319 4.176a.244.244 0 0 0 .483-.061c-.315-2.497-.315-2.616-.315-4.099v-.016a.244.244 0 0 0-.244-.244ZM19.61.83a.366.366 0 0 0 .075-.726.669.669 0 0 0-.392.051.69.69 0 0 0-.283.254c-.122.187-.174.431-.2.668-.055.485-.019 1.16.036 1.893l.048.629c.108 1.362.228 2.89.064 4.134l-.003.024v.024c0 1.261.078 2.01.157 2.597l.042.299c.06.432.109.775.109 1.25h.732c0-.53-.057-.928-.118-1.365a38.353 38.353 0 0 1-.04-.282c-.074-.555-.15-1.264-.15-2.476.17-1.323.043-2.93-.064-4.275l-.048-.613c-.055-.745-.084-1.352-.039-1.758.02-.176.05-.277.075-.328Z" /><path fill-rule="evenodd" clip-rule="evenodd" d="M6.42 24.276c0 1.848-1.225 2.239-2.297 2.58-.322.103-.63.201-.887.334a.623.623 0 0 1-.6-.013c-.212-.129-.448-.24-.69-.355-.59-.28-1.213-.576-1.59-1.17a.62.62 0 0 0 .05.002c.486 0 1.391-.368 1.391-.853 0-.08.03-.178.062-.278.093-.298.196-.624-.452-.624s-.6.233-.535.552c.023.109.047.227.047.35 0 .255-.277.479-.468.633a1.477 1.477 0 0 0-.149.129c-.185-.329-.298-.744-.298-1.287 0-1.67 1.31-1.67 2.928-1.67.23 0 .467-.009.702-.017 1.411-.05 2.787-.1 2.787 1.687Zm-1.26 1.378c-.485 0-1.39-.368-1.39-.853 0-.08-.031-.178-.063-.278-.093-.298-.195-.624.453-.624.647 0 .6.233.534.552-.022.109-.046.227-.046.35 0 .255.276.479.467.633.172.138.274.22.045.22ZM6.658 19.752c.593 0 1.464-.37 1.464-.962-.084-.585-.767-1.282-1.464-1.282-.593 0-.795.509-.795 1.101 0 .593.202 1.143.795 1.143Zm.25-.265a.892.892 0 1 0 0-1.784.892.892 0 0 0 0 1.784Z" /><path fill-rule="evenodd" clip-rule="evenodd" d="M6.907 19.293c.508 0 .92-.356.92-.795 0-.438-.412-.794-.92-.794s-.92.356-.92.794c0 .44.412.795.92.795Zm-.421-1.171a.14.14 0 1 1 0 .278.14.14 0 0 1 0-.278ZM25.446 12.609a.488.488 0 0 1 .536.433c.174 1.642.26 7.332.26 13.659 0 6.342-.086 13.373-.257 17.723a.488.488 0 0 1-.975-.038c.17-4.331.255-11.347.255-17.685 0-6.354-.086-11.979-.253-13.556a.488.488 0 0 1 .434-.536Z" /><path fill-rule="evenodd" clip-rule="evenodd" d="M6.662 16.094H6.66c-.748-.098-1.236-.158-1.586-.16-.268-.003-.356.032-.373.041-.01.01-.075.092-.147.438-.067.323-.118.749-.19 1.352l-.037.3c-.193 1.6.032 2.113.212 2.304.09.094.23.179.495.25.277.076.612.118 1.064.172.449.055.813.098 1.138.094.318-.004.537-.054.701-.142.286-.154.69-.591.877-2.136.046-.383.096-.715.139-.999l.005-.034c.04-.273.073-.487.092-.669a1.79 1.79 0 0 0 .013-.397 1.626 1.626 0 0 0-.409-.13c-.42-.093-1.038-.169-1.987-.284h-.004Zm-1.966-.116.003-.002-.003.002Zm1.311 5.56c1.747.21 3.162.382 3.552-2.841.178-1.464.404-2.188.141-2.601-.27-.424-1.056-.52-2.944-.748-2.818-.365-2.82-.342-3.14 2.33l-.036.296c-.39 3.223.68 3.352 2.427 3.563ZM15.366 17.181h.002c.915.104 1.539.178 1.982.273.46.099.56.191.577.21.003.003.015.017.029.07.016.066.029.173.026.352-.005.322-.056.74-.13 1.344l-.036.3c-.19 1.563-.574 1.98-.865 2.129-.173.088-.416.14-.79.138-.378 0-.816-.053-1.366-.12-.548-.065-1.017-.123-1.43-.219-.41-.095-.704-.216-.915-.372-.343-.256-.682-.776-.502-2.265.047-.385.076-.722.1-1.008l.003-.032c.024-.278.042-.49.066-.668a1.36 1.36 0 0 1 .078-.347c.043-.016.206-.06.68-.042.547.023 1.327.116 2.488.257h.003Zm-3.163-.23-.002.003.002-.003Zm2.502 5.673c-2.15-.26-3.893-.47-3.503-3.694.167-1.379.106-2.135.455-2.493.4-.413 1.343-.299 3.796-.002 3.475.395 3.473.418 3.145 3.089a210.3 210.3 0 0 0-.036.296c-.39 3.223-1.708 3.064-3.858 2.804Z" /><path fill-rule="evenodd" clip-rule="evenodd" d="M9.02 17.71a.25.25 0 0 1 .279-.218l2.286.276a.25.25 0 1 1-.06.498l-2.287-.277a.25.25 0 0 1-.218-.279Z" /><path d="M38.554 45.11c-1.352 0-2.471-.275-3.359-.824-.866-.549-1.531-1.32-1.996-2.312-.443-.992-.718-2.164-.823-3.515l1.489-.475c.148 1.12.37 2.111.665 2.977.317.866.792 1.541 1.426 2.027.633.464 1.51.696 2.63.696 1.267 0 2.26-.316 2.978-.95.74-.633 1.109-1.689 1.109-3.166 0-1.12-.296-2.122-.887-3.009-.57-.908-1.384-1.879-2.44-2.913l-4.69-4.655c-.78-.802-1.351-1.605-1.71-2.407a5.987 5.987 0 0 1-.539-2.47c0-1.689.518-2.987 1.553-3.895 1.056-.908 2.418-1.362 4.087-1.362.866 0 1.648.116 2.345.349.697.21 1.298.57 1.805 1.076.528.486.94 1.14 1.236 1.964.296.823.486 1.836.57 3.04l-1.457.348c-.084-1.203-.285-2.206-.602-3.008-.317-.803-.782-1.394-1.394-1.774-.613-.4-1.436-.602-2.471-.602-1.162 0-2.134.296-2.915.887-.782.591-1.173 1.541-1.173 2.85 0 .655.127 1.288.38 1.9.275.613.771 1.278 1.49 1.995l4.626 4.56a18.372 18.372 0 0 1 2.661 3.262 6.648 6.648 0 0 1 1.14 3.769c0 1.287-.242 2.354-.728 3.198a4.498 4.498 0 0 1-2.028 1.837c-.866.4-1.859.601-2.978.601ZM51.486 45.078c-.972 0-1.806-.19-2.503-.57-.697-.401-1.236-1.109-1.616-2.122-.36-1.034-.539-2.491-.539-4.37v-4.877c0-1.921.19-3.378.57-4.37.38-.992.92-1.668 1.616-2.027.718-.358 1.553-.538 2.503-.538 1.14 0 2.039.243 2.693.728.655.486 1.12 1.267 1.394 2.344.275 1.055.412 2.46.412 4.211v1.742h-7.509v2.914c0 1.456.095 2.596.285 3.42.212.823.539 1.404.983 1.741.443.338 1.014.507 1.71.507.444 0 .888-.074 1.331-.222.444-.147.813-.496 1.11-1.045.295-.548.443-1.404.443-2.565v-1.361h1.647v1.203c0 1.562-.327 2.829-.982 3.8-.633.971-1.816 1.457-3.548 1.457Zm-2.979-10.862h5.862V32.79c0-1.098-.064-2.037-.19-2.819-.106-.802-.36-1.414-.76-1.836-.402-.444-1.036-.665-1.902-.665-.676 0-1.246.148-1.71.443-.444.274-.772.802-.983 1.583-.211.76-.317 1.869-.317 3.325v1.394ZM59.404 44.793V26.489h1.679v2.47c.549-.908 1.225-1.573 2.028-1.995.823-.443 1.594-.665 2.313-.665h.126c.064 0 .127.01.19.032v1.741a.79.79 0 0 0-.348-.063 2.135 2.135 0 0 0-.349-.032c-.845 0-1.605.2-2.281.602-.655.401-1.215.982-1.68 1.742v14.472h-1.678ZM71.165 44.793 66.95 26.489h1.71l3.422 16.182 3.359-16.182h1.616l-4.024 18.304h-1.87ZM79.733 44.793V26.489h1.71v18.304h-1.71Zm0-20.71v-2.914h1.71v2.913h-1.71ZM89.76 45.078c-1.374 0-2.388-.317-3.043-.95-.654-.655-1.087-1.52-1.299-2.597-.19-1.077-.285-2.28-.285-3.61v-4.307c0-1.794.138-3.23.412-4.307.275-1.097.75-1.89 1.426-2.375.676-.485 1.605-.728 2.788-.728 1.267 0 2.218.264 2.852.792.654.506 1.087 1.214 1.299 2.121.21.887.317 1.89.317 3.009v.728h-1.585v-.728c0-1.246-.105-2.196-.316-2.85-.19-.676-.497-1.14-.92-1.394-.422-.274-.97-.411-1.647-.411-.824 0-1.447.2-1.87.601-.422.38-.707 1.003-.855 1.869-.148.865-.222 2.027-.222 3.483v4.75c0 1.985.19 3.42.57 4.307.402.887 1.205 1.33 2.409 1.33.824 0 1.436-.18 1.838-.538.422-.36.697-.919.823-1.679.127-.76.19-1.741.19-2.945v-.696h1.585v.665c0 1.224-.096 2.322-.286 3.293-.19.971-.602 1.742-1.235 2.312-.634.57-1.616.855-2.947.855ZM101.672 45.078c-.971 0-1.806-.19-2.503-.57-.697-.401-1.235-1.109-1.616-2.122-.359-1.034-.538-2.491-.538-4.37v-4.877c0-1.921.19-3.378.57-4.37.38-.992.919-1.668 1.616-2.027.718-.358 1.552-.538 2.503-.538 1.141 0 2.038.243 2.693.728.655.486 1.12 1.267 1.394 2.344.275 1.055.412 2.46.412 4.211v1.742h-7.509v2.914c0 1.456.095 2.596.285 3.42.211.823.539 1.404.982 1.741.444.338 1.014.507 1.711.507a4.19 4.19 0 0 0 1.331-.222c.444-.147.813-.496 1.109-1.045.296-.548.443-1.404.443-2.565v-1.361h1.648v1.203c0 1.562-.327 2.829-.982 3.8-.634.971-1.817 1.457-3.549 1.457Zm-2.978-10.862h5.861V32.79c0-1.098-.063-2.037-.19-2.819-.105-.802-.359-1.414-.76-1.836-.401-.444-1.035-.665-1.901-.665-.676 0-1.246.148-1.711.443-.444.274-.771.802-.982 1.583-.211.76-.317 1.869-.317 3.325v1.394ZM109.939 44.793v-25.65h5.608c1.711 0 3.041.326 3.992.98.95.655 1.616 1.542 1.996 2.66.38 1.12.57 2.365.57 3.738v10.64c0 1.457-.19 2.765-.57 3.927-.38 1.14-1.035 2.047-1.964 2.723-.909.654-2.197.982-3.866.982h-5.766Zm1.711-1.362h3.96c1.394 0 2.429-.295 3.105-.887.676-.59 1.12-1.372 1.331-2.343.211-.992.317-2.069.317-3.23V26.647c0-1.245-.127-2.322-.38-3.23-.254-.929-.729-1.636-1.426-2.121-.697-.507-1.701-.76-3.01-.76h-3.897V43.43ZM129.982 45.078c-1.204 0-2.144-.264-2.82-.792-.655-.528-1.119-1.309-1.394-2.343-.253-1.035-.38-2.312-.38-3.832v-4.94c0-1.52.127-2.797.38-3.832.275-1.034.739-1.816 1.394-2.343.676-.528 1.616-.792 2.82-.792 1.225 0 2.165.264 2.82.792.676.527 1.14 1.309 1.394 2.343.275 1.013.412 2.29.412 3.832v4.94c0 1.52-.137 2.797-.412 3.832-.254 1.034-.718 1.815-1.394 2.343-.655.528-1.595.792-2.82.792Zm0-1.267c.887 0 1.542-.222 1.964-.665.423-.464.687-1.119.793-1.963.126-.845.19-1.848.19-3.009v-5.066c0-1.183-.064-2.186-.19-3.009-.106-.844-.37-1.488-.793-1.932-.422-.464-1.077-.696-1.964-.696s-1.542.232-1.964.696c-.402.444-.666 1.088-.792 1.932-.106.823-.159 1.826-.159 3.009v5.066c0 1.161.053 2.164.159 3.009.126.844.39 1.499.792 1.963.422.443 1.077.665 1.964.665ZM142.46 51c-1.268 0-2.345-.117-3.232-.349-.887-.232-1.563-.59-2.028-1.077-.444-.485-.665-1.087-.665-1.804 0-.634.158-1.225.475-1.774a6.587 6.587 0 0 1 1.236-1.425 7.906 7.906 0 0 1 1.552-1.077c-.781-.21-1.352-.464-1.711-.76-.338-.316-.507-.739-.507-1.266 0-.592.211-1.14.634-1.647.422-.528.972-1.077 1.647-1.647-.908-.654-1.542-1.477-1.901-2.47a9.855 9.855 0 0 1-.507-3.198c0-1.014.169-1.995.507-2.945.359-.971.909-1.774 1.648-2.407.76-.633 1.743-.95 2.947-.95 1.119 0 1.985.253 2.598.76.633.507 1.119 1.066 1.457 1.678.211-.4.549-.812 1.014-1.235.465-.443.951-.75 1.457-.918l.444-.158.475 1.266a5.117 5.117 0 0 0-1.109.412c-.38.19-.728.412-1.045.665a3.88 3.88 0 0 0-.792.76c.169.401.306.929.412 1.583.126.634.19 1.14.19 1.52 0 1.204-.169 2.291-.507 3.262-.338.971-.877 1.742-1.616 2.312-.739.57-1.711.855-2.915.855-.338 0-.697-.032-1.077-.095a5.395 5.395 0 0 1-.887-.222c-.402.401-.771.824-1.109 1.267-.338.422-.507.834-.507 1.235 0 .338.116.591.348.76.254.169.644.306 1.172.412l2.979.538c1.499.275 2.672.728 3.517 1.362.866.633 1.299 1.54 1.299 2.723 0 .95-.275 1.72-.824 2.312-.549.612-1.267 1.055-2.155 1.33-.887.274-1.858.411-2.914.411Zm0-1.362c1.246 0 2.302-.211 3.168-.633.866-.423 1.299-1.098 1.299-2.027a2.33 2.33 0 0 0-.317-1.204c-.19-.358-.57-.675-1.141-.95-.57-.274-1.425-.506-2.566-.696l-1.996-.349c-.359.211-.771.486-1.236.824a6.178 6.178 0 0 0-1.172 1.171 2.623 2.623 0 0 0-.507 1.584c0 .802.38 1.383 1.141 1.742.781.358 1.89.538 3.327.538Zm.158-11.907c.781 0 1.405-.169 1.869-.507a3.382 3.382 0 0 0 1.046-1.33c.232-.549.38-1.119.443-1.71.085-.612.127-1.171.127-1.678 0-.486-.053-1.014-.158-1.584a5.753 5.753 0 0 0-.507-1.678 3.406 3.406 0 0 0-1.077-1.298c-.444-.338-1.035-.507-1.775-.507-.739 0-1.341.18-1.806.538a3.907 3.907 0 0 0-1.109 1.362 7.052 7.052 0 0 0-.538 1.678c-.085.57-.127 1.067-.127 1.489 0 .485.042 1.034.127 1.647.084.59.253 1.16.507 1.71a3.589 3.589 0 0 0 1.077 1.361c.486.338 1.119.507 1.901.507Z" /></svg><svg  viewBox="0 0 21 28" id="play" xmlns="http://www.w3.org/2000/svg"><path d="M1 3.783C1 2.176 2.799 1.226 4.126 2.13L19.12 12.347a2 2 0 0 1 0 3.306L4.127 25.87C2.8 26.774 1 25.824 1 24.217V3.783Z"   stroke-width="2" stroke-linecap="round" stroke-linejoin="round"/></svg><svg  viewBox="0 0 24 24" id="plus" xmlns="http://www.w3.org/2000/svg"><path d="M12 5v14M5 12h14"  stroke-width="2" stroke-linecap="round" stroke-linejoin="round"/></svg><svg  viewBox="0 0 20 20" id="question" xmlns="http://www.w3.org/2000/svg"><path d="M10.037 20C4.535 20 .075 15.54.075 10.037c0-5.502 4.46-9.962 9.962-9.962C15.54.075 20 4.535 20 10.038 20 15.54 15.54 20 10.037 20Zm0-18.841c-4.877 0-8.879 4.001-8.879 8.878 0 4.878 4.002 8.88 8.88 8.88 4.876 0 8.878-4.002 8.878-8.88 0-4.918-4.002-8.878-8.879-8.878Z" /><path d="M6.953 6.87c.167-.459.375-.834.667-1.126a3.26 3.26 0 0 1 1.084-.709c.416-.166.917-.25 1.458-.25.417 0 .834.084 1.21.209.374.125.708.333 1 .542.292.208.5.542.667.875.166.333.25.75.25 1.209 0 .583-.125 1.042-.375 1.459-.25.417-.584.792-.96 1.167l-.75.75a1.58 1.58 0 0 0-.416.542 1.382 1.382 0 0 0-.167.625c-.042.25-.042.417-.042.876h-.958c0-.459 0-.667.083-.959.042-.333.167-.584.292-.875.125-.25.333-.5.542-.75.25-.25.5-.5.833-.793.292-.25.542-.542.709-.875.208-.333.292-.709.292-1.084 0-.292-.042-.583-.167-.833s-.292-.459-.459-.667c-.166-.209-.416-.334-.708-.417-.25-.084-.542-.167-.834-.167-.417 0-.792.083-1.084.208a1.877 1.877 0 0 0-.792.584c-.208.25-.375.542-.458.875-.084.334-.167.626-.125 1h-.959c-.042-.583 0-.958.167-1.416Zm2.5 7.294h1.168v1.167H9.454v-1.167Z" /></svg><svg  viewBox="0 0 18 24" id="report" xmlns="http://www.w3.org/2000/svg"><path d="M14.778 19.555H3.222v.89h11.556v-.89ZM9.444 6.222H3.222v.89h6.222v-.89ZM14.778 16.889H3.222v.889h11.556v-.89ZM9.444 3.556H3.222v.888h6.222v-.888Z" /><path d="M12.111 0H2.333C1.356 0 .556.8.556 1.778v20.444c0 .978.8 1.778 1.777 1.778h13.334c.978 0 1.778-.8 1.778-1.778v-16L12.11 0Zm0 1.333 4.178 4.89H13c-.444 0-.889-.445-.889-.89v-4Zm4.445 20.89a.89.89 0 0 1-.89.888H2.334a.89.89 0 0 1-.888-.889V1.778a.89.89 0 0 1 .888-.89h8.89v4.445c0 .978.8 1.778 1.777 1.778h3.556v15.111Z" /><path d="M14.778 14.222H3.222v.89h11.556v-.89ZM14.778 8.889H3.222v.889h11.556v-.89ZM14.778 11.556H3.222v.888h11.556v-.889Z" /></svg><svg  viewBox="0 0 24 24" id="rotate" xmlns="http://www.w3.org/2000/svg"><path d="M23 4v6h-6"  stroke-width="2" stroke-linecap="round" stroke-linejoin="round"/><path d="M20.49 15a9 9 0 1 1-2.12-9.36L23 10"  stroke-width="2" stroke-linecap="round" stroke-linejoin="round"/></svg><svg  viewBox="0 0 24 24" id="search" xmlns="http://www.w3.org/2000/svg"><path d="M11 19a8 8 0 1 0 0-16 8 8 0 0 0 0 16ZM21 21l-4.35-4.35"  stroke-width="2" stroke-linecap="round" stroke-linejoin="round"/></svg><svg  viewBox="0 0 24 24" id="settings" xmlns="http://www.w3.org/2000/svg"><g clip-path="url(#awa)"  stroke-width="2" stroke-linecap="round" stroke-linejoin="round"><path d="M12 15a3 3 0 1 0 0-6 3 3 0 0 0 0 6Z"/><path d="M19.4 15a1.65 1.65 0 0 0 .33 1.82l.06.06a1.998 1.998 0 0 1 0 2.83 1.998 1.998 0 0 1-2.83 0l-.06-.06a1.65 1.65 0 0 0-1.82-.33 1.65 1.65 0 0 0-1 1.51V21a2 2 0 0 1-4 0v-.09A1.65 1.65 0 0 0 9 19.4a1.65 1.65 0 0 0-1.82.33l-.06.06a1.998 1.998 0 0 1-2.83 0 2 2 0 0 1 0-2.83l.06-.06a1.65 1.65 0 0 0 .33-1.82 1.65 1.65 0 0 0-1.51-1H3a2 2 0 1 1 0-4h.09A1.65 1.65 0 0 0 4.6 9a1.65 1.65 0 0 0-.33-1.82l-.06-.06a2 2 0 1 1 2.83-2.83l.06.06a1.65 1.65 0 0 0 1.82.33H9a1.65 1.65 0 0 0 1-1.51V3a2 2 0 1 1 4 0v.09a1.65 1.65 0 0 0 1 1.51 1.65 1.65 0 0 0 1.82-.33l.06-.06a2 2 0 0 1 3.417 1.415 2 2 0 0 1-.587 1.415l-.06.06a1.65 1.65 0 0 0-.33 1.82V9a1.65 1.65 0 0 0 1.51 1H21a2 2 0 0 1 0 4h-.09a1.65 1.65 0 0 0-1.51 1v0Z"/></g><defs><clipPath id="awa"><path  d="M0 0h24v24H0z"/></clipPath></defs></svg><svg  viewBox="0 0 50 48" id="star" xmlns="http://www.w3.org/2000/svg"><path d="M23.098 1.854c.599-1.843 3.205-1.843 3.804 0l4.384 13.493a2 2 0 0 0 1.902 1.383h14.188c1.938 0 2.743 2.479 1.176 3.617l-11.478 8.34a2 2 0 0 0-.727 2.236l4.384 13.493c.6 1.843-1.51 3.375-3.077 2.237l-11.478-8.34a2 2 0 0 0-2.352 0l-11.478 8.34c-1.567 1.138-3.676-.394-3.077-2.237l4.384-13.493a2 2 0 0 0-.727-2.236l-11.478-8.34C-.119 19.21.686 16.73 2.624 16.73H16.81a2 2 0 0 0 1.903-1.383l4.384-13.493Z" /></svg><svg  viewBox="0 0 20 20" id="sales" xmlns="http://www.w3.org/2000/svg"><path d="M20 7.653 13.101 6.6 10 0 6.899 6.6 0 7.653l4.99 5.11L3.81 20 10 16.581 16.19 20l-1.181-7.238L20 7.652ZM10 15.13l-4.643 2.603.886-5.252-3.997-4.08 5.406-.704L10 2.695l2.326 5.003 5.389.765-3.958 4.038.827 5.253L10 15.13Z" /></svg><svg  viewBox="0 0 23 23" id="tool" xmlns="http://www.w3.org/2000/svg"><path d="M13.7 6.3a1 1 0 0 0 0 1.4l1.6 1.6a1 1 0 0 0 1.4 0l3.77-3.77a6 6 0 0 1-7.94 7.94l-6.91 6.91a2.121 2.121 0 0 1-3-3l6.91-6.91a6 6 0 0 1 7.94-7.94l-3.76 3.76-.01.01Z"  stroke-width="2" stroke-linecap="round" stroke-linejoin="round"/></svg><svg  viewBox="0 0 24 24" id="user" xmlns="http://www.w3.org/2000/svg"><path d="M20 21v-2a4 4 0 0 0-4-4H8a4 4 0 0 0-4 4v2M12 11a4 4 0 1 0 0-8 4 4 0 0 0 0 8Z"  stroke-width="2" stroke-linecap="round" stroke-linejoin="round"/></svg><svg  viewBox="0 0 748 28" id="voice-message" xmlns="http://www.w3.org/2000/svg"><rect x=".223" y="4.667" width="3.736" height="18.667" rx="1" /><rect x="323.359" y="4.667" width="3.736" height="18.667" rx="1" /><rect x="646.492" y="4.667" width="3.736" height="18.667" rx="1" /><rect x="286" y="4.667" width="3.736" height="18.667" rx="1" /><rect x="609.133" y="4.667" width="3.736" height="18.667" rx="1" /><rect x="74.938" y="4.667" width="3.736" height="18.667" rx="1" /><rect x="398.07" y="4.667" width="3.736" height="18.667" rx="1" /><rect x="185.137" y="4.667" width="3.736" height="18.667" rx="1" /><rect x="508.273" y="4.667" width="3.736" height="18.667" rx="1" /><rect x="250.512" y="4.667" width="3.736" height="18.667" rx="1" /><rect x="573.645" y="4.667" width="3.736" height="18.667" rx="1" /><rect x="125.367" y="4.667" width="3.736" height="18.667" rx="1" /><rect x="448.5" y="4.667" width="3.736" height="18.667" rx="1" /><rect x="22.637" y="4.667" width="3.736" height="18.667" rx="1" /><rect x="345.773" y="4.667" width="3.736" height="18.667" rx="1" /><rect x="668.906" y="4.667" width="3.736" height="18.667" rx="1" /><rect x="728.941" y="4.667" width="3.736" height="18.667" rx="1" /><rect x="691.32" y="4.667" width="3.736" height="18.667" rx="1" /><rect x="308.414" y="4.667" width="3.736" height="18.667" rx="1" /><rect x="631.551" y="4.667" width="3.736" height="18.667" rx="1" /><rect x="52.523" y="4.667" width="3.736" height="18.667" rx="1" /><rect x="375.656" y="4.667" width="3.736" height="18.667" rx="1" /><rect x="162.727" y="4.667" width="3.736" height="18.667" rx="1" /><rect x="485.855" y="4.667" width="3.736" height="18.667" rx="1" /><rect x="228.098" y="4.667" width="3.736" height="18.667" rx="1" /><rect x="551.23" y="4.667" width="3.736" height="18.667" rx="1" /><rect x="30.109" y="8.4" width="3.736" height="11.2" rx="1" /><rect x="353.242" y="8.4" width="3.736" height="11.2" rx="1" /><rect x="676.379" y="8.4" width="3.736" height="11.2" rx="1" /><rect x="736.414" y="8.4" width="3.736" height="11.2" rx="1" /><rect x="698.789" y="8.4" width="3.736" height="11.2" rx="1" /><rect x="315.887" y="8.4" width="3.736" height="11.2" rx="1" /><rect x="639.02" y="8.4" width="3.736" height="11.2" rx="1" /><rect x="80.539" y="8.4" width="3.736" height="11.2" rx="1" /><rect x="403.672" y="8.4" width="3.736" height="11.2" rx="1" /><rect x="190.738" y="8.4" width="3.736" height="11.2" rx="1" /><rect x="513.875" y="8.4" width="3.736" height="11.2" rx="1" /><rect x="256.113" y="8.4" width="3.736" height="11.2" rx="1" /><rect x="579.25" y="8.4" width="3.736" height="11.2" rx="1" /><rect x="88.012" y="8.4" width="3.736" height="11.2" rx="1" /><rect x="411.148" y="8.4" width="3.736" height="11.2" rx="1" /><rect x="198.215" y="8.4" width="3.736" height="11.2" rx="1" /><rect x="521.348" y="8.4" width="3.736" height="11.2" rx="1" /><rect x="263.59" y="8.4" width="3.736" height="11.2" rx="1" /><rect x="586.719" y="8.4" width="3.736" height="11.2" rx="1" /><rect x="117.895" y="8.4" width="3.736" height="11.2" rx="1" /><rect x="441.031" y="8.4" width="3.736" height="11.2" rx="1" /><rect x="95.481" y="11.2" width="3.736" height="5.6" rx="1" /><rect x="418.617" y="11.2" width="3.736" height="5.6" rx="1" /><rect x="205.684" y="11.2" width="3.736" height="5.6" rx="1" /><rect x="528.82" y="11.2" width="3.736" height="5.6" rx="1" /><rect x="271.059" y="11.2" width="3.736" height="5.6" rx="1" /><rect x="594.195" y="11.2" width="3.736" height="5.6" rx="1" /><rect x="706.262" y="11.2" width="3.736" height="5.6" rx="1" /><rect x="102.953" y="11.2" width="3.736" height="5.6" rx="1" /><rect x="426.086" y="11.2" width="3.736" height="5.6" rx="1" /><rect x="213.156" y="11.2" width="3.736" height="5.6" rx="1" /><rect x="536.289" y="11.2" width="3.736" height="5.6" rx="1" /><rect x="278.527" y="11.2" width="3.736" height="5.6" rx="1" /><rect x="601.664" y="11.2" width="3.736" height="5.6" rx="1" /><rect x="110.426" y="11.2" width="3.736" height="5.6" rx="1" /><rect x="433.559" y="11.2" width="3.736" height="5.6" rx="1" /><rect x="7.691" width="3.736" height="28" rx="1" /><rect x="330.828" width="3.736" height="28" rx="1" /><rect x="653.965" width="3.736" height="28" rx="1" /><rect x="714" width="3.736" height="28" rx="1" /><rect x="293.473" width="3.736" height="28" rx="1" /><rect x="616.609" width="3.736" height="28" rx="1" /><rect x="37.578" width="3.736" height="28" rx="1" /><rect x="360.715" width="3.736" height="28" rx="1" /><rect x="140.312" width="3.736" height="28" rx="1" /><rect x="463.445" width="3.736" height="28" rx="1" /><rect x="45.051" width="3.736" height="28" rx="1" /><rect x="368.184" width="3.736" height="28" rx="1" /><rect x="155.25" width="3.736" height="28" rx="1" /><rect x="478.387" width="3.736" height="28" rx="1" /><rect x="220.625" width="3.736" height="28" rx="1" /><rect x="543.762" width="3.736" height="28" rx="1" /><rect x="147.781" width="3.736" height="28" rx="1" /><rect x="470.918" width="3.736" height="28" rx="1" /><rect x="67.465" width="3.736" height="28" rx="1" /><rect x="390.598" width="3.736" height="28" rx="1" /><rect x="177.668" width="3.736" height="28" rx="1" /><rect x="500.801" width="3.736" height="28" rx="1" /><rect x="243.039" width="3.736" height="28" rx="1" /><rect x="566.176" width="3.736" height="28" rx="1" /><rect x="15.168" y="2.8" width="3.736" height="22.4" rx="1" /><rect x="338.297" y="2.8" width="3.736" height="22.4" rx="1" /><rect x="661.434" y="2.8" width="3.736" height="22.4" rx="1" /><rect x="721.469" y="2.8" width="3.736" height="22.4" rx="1" /><rect x="683.848" y="2.8" width="3.736" height="22.4" rx="1" /><rect x="743.883" y="2.8" width="3.736" height="22.4" rx="1" /><rect x="300.945" y="2.8" width="3.736" height="22.4" rx="1" /><rect x="624.078" y="2.8" width="3.736" height="22.4" rx="1" /><rect x="59.992" y="2.8" width="3.736" height="22.4" rx="1" /><rect x="383.129" y="2.8" width="3.736" height="22.4" rx="1" /><rect x="170.195" y="2.8" width="3.736" height="22.4" rx="1" /><rect x="493.332" y="2.8" width="3.736" height="22.4" rx="1" /><rect x="235.57" y="2.8" width="3.736" height="22.4" rx="1" /><rect x="558.707" y="2.8" width="3.736" height="22.4" rx="1" /><rect x="132.836" y="2.8" width="3.736" height="22.4" rx="1" /><rect x="455.973" y="2.8" width="3.736" height="22.4" rx="1" /></svg><svg  viewBox="0 0 24 24" id="x" xmlns="http://www.w3.org/2000/svg"><path d="M18 6 6 18M6 6l12 12"  stroke-width="2" stroke-linecap="round" stroke-linejoin="round"/></svg></svg>